<svg xmlns="http://www.w3.org/2000/svg" width="30" height="24" fill="none" viewBox="0 0 30 24">
	<path fill="#172962" fill-rule="evenodd" d="M19.978 2.154l9.034 3.444a.425.425 0 01.274.397v1.938a.424.424 0 01-.274.396l-4.328 1.65v6.685a.42.42 0 01-.159.33c-.625.502-1.287.95-1.98 1.343v2.166a1.615 1.615 0 011.189 1.555c0 .889-.723 1.612-1.613 1.612a1.614 1.614 0 01-1.612-1.612c0-.742.504-1.369 1.188-1.555v-1.718A15.286 15.286 0 0115 20.34c-3.45 0-6.833-1.188-9.525-3.345a.424.424 0 01-.16-.331v-3.517a.424.424 0 11.85 0v3.311A14.439 14.439 0 0015 19.491c2.338 0 4.642-.578 6.697-1.657v-6.716l-6.546 2.496a.424.424 0 01-.302 0l-8.685-3.31v1.146a.424.424 0 11-.848 0V9.98L.987 8.33a.425.425 0 01-.273-.397V5.995c0-.176.109-.334.273-.397L14.85.314a.424.424 0 01.302 0l3.274 1.248a.424.424 0 11-.303.793L15 1.165 2.33 5.994 15 10.825l6.018-2.294-6.193-2.804a.424.424 0 01.35-.773l6.96 3.151 5.535-2.11-7.995-3.048a.424.424 0 11.303-.793zm2.144 20.667a.765.765 0 000-1.527.765.765 0 000 1.527zM1.562 6.611l13.014 4.961v1.03L1.563 7.64V6.61zm13.862 4.961v1.03l6.273-2.392V9.18l-6.273 2.392zm8.412 4.886c-.414.322-.845.62-1.29.893v-6.556l1.29-.492v6.155zm-1.29-7.601v1.03l5.891-2.247V6.61l-5.891 2.247z" clip-rule="evenodd"/>
</svg>
