<svg xmlns="http://www.w3.org/2000/svg" width="17" height="17" fill="none" viewBox="0 0 17 17">
	<path fill="#172962" fill-rule="evenodd" d="M8.002.002c2.173 0 2.446.01 3.299.049.851.038 1.433.174 1.942.371a3.925 3.925 0 011.417.923c.407.4.722.883.922 1.417.198.509.333 1.09.372 1.942.04.853.048 1.126.048 3.298 0 2.173-.009 2.445-.048 3.299-.039.851-.174 1.433-.372 1.942a4.09 4.09 0 01-2.34 2.34c-.508.197-1.09.332-1.941.371-.853.04-1.126.048-3.298.048-2.173 0-2.446-.009-3.299-.048-.851-.039-1.433-.174-1.942-.372a3.922 3.922 0 01-1.417-.922 3.922 3.922 0 01-.922-1.417C.225 12.733.09 12.153.05 11.3c-.04-.853-.049-1.126-.049-3.299 0-2.172.01-2.445.049-3.298.038-.851.174-1.433.371-1.942a3.925 3.925 0 01.923-1.417c.4-.407.883-.722 1.417-.923.51-.197 1.09-.333 1.942-.371C5.557.01 5.83.002 8.002.002zm0 1.442c-2.136 0-2.389.008-3.232.047-.78.035-1.204.165-1.486.275a2.479 2.479 0 00-.92.598c-.265.258-.47.573-.598.92-.11.282-.24.706-.276 1.486-.038.843-.046 1.096-.046 3.232 0 2.137.008 2.39.046 3.233.036.78.166 1.204.276 1.486.128.347.333.662.598.92.258.265.573.47.92.598.282.11.706.24 1.486.275.843.039 1.096.047 3.232.047 2.137 0 2.39-.008 3.233-.047.78-.035 1.204-.165 1.486-.275a2.65 2.65 0 001.518-1.518c.11-.282.24-.706.275-1.486.039-.843.047-1.096.047-3.233 0-2.136-.008-2.389-.047-3.232-.035-.78-.166-1.204-.275-1.486a2.48 2.48 0 00-.599-.92 2.478 2.478 0 00-.92-.598c-.281-.11-.705-.24-1.485-.275-.843-.039-1.096-.047-3.233-.047zm4.108 6.558a4.108 4.108 0 10-8.216 0 4.108 4.108 0 008.216 0zM8.003 10.67a2.667 2.667 0 100-5.333 2.667 2.667 0 000 5.333zm3.31-6.937a.96.96 0 101.92 0 .96.96 0 00-1.92 0z" clip-rule="evenodd"/>
</svg>
