<svg xmlns="http://www.w3.org/2000/svg" width="133" height="52" viewBox="0 0 133 52">
	<g fill="none">
		<path fill="#FBBA00" d="M67.067 7.848L65.57 35.49l-5.23-13.825 2.99 13.825-8.605-11.21L60.7 35.865 39.407 20.92 58.1 36.63l-11.953-4.483 9.71 5.586c-8.879-.161-19.493-7.175-22.803-21.669 0 0 18.985.158 25.402 8.591-1.28-11.879 6.915-23.07 8.595-24.64 1.38 1.585 9.562 12.776 8.216 24.64 6.499-8.433 25.454-8.653 25.406-8.59-3.214 14.493-13.832 21.507-22.802 21.668l9.713-5.604-11.927 4.501 18.68-15.693-21.295 14.947 5.977-11.585-8.216 11.191 2.614-13.825-5.23 13.825-1.121-27.642"/>
		<path fill="#172962" d="M9.687 51.771l-.235.037c-.162 0-.342.03-.537.04h-.526a6.414 6.414 0 01-.901-.077 2.96 2.96 0 01-1.799-.978c-.24-.27-.467-.55-.68-.842a33.985 33.985 0 01-.607-.857 3.917 3.917 0 00-.551-.673 1.298 1.298 0 00-.302-.243.706.706 0 00-.29-.077v3.678a2.722 2.722 0 00-.512-.074h-.474a5.55 5.55 0 00-.997.088v-6.546a3.284 3.284 0 00-.095-.908 1.313 1.313 0 00-.265-.49 1.416 1.416 0 00-.199-.15l-.169-.122a.61.61 0 01-.129-.128.298.298 0 01-.051-.188h3.825a8.804 8.804 0 011.574.136c.482.086.924.322 1.265.673.16.162.285.355.368.567.092.234.14.483.14.735a1.75 1.75 0 01-.2.828 2.788 2.788 0 01-.488.676 2.96 2.96 0 01-.63.5 2.6 2.6 0 01-.613.276l.625.791c.334.427.643.828.927 1.199.283.371.544.68.776.927.136.143.264.272.367.368.115.107.238.205.368.294.133.087.275.16.423.217.174.068.353.12.537.154.07.019.103.044.103.077a.066.066 0 01-.048.092zm-4.336-6.987a1.427 1.427 0 00-.522-.633 1.269 1.269 0 00-.438-.198 1.916 1.916 0 00-.437-.06 3.2 3.2 0 00-.696.067v3.07a.338.338 0 00.217.369c.159.049.324.072.49.07.24.006.48-.047.695-.155.19-.091.356-.223.489-.386.134-.18.23-.385.283-.603.062-.233.093-.473.092-.714 0-.282-.06-.561-.173-.82v-.007zm10.728 6.384a1.81 1.81 0 01-.088.456.272.272 0 01-.283.158h-3.954a1.986 1.986 0 01-.327 0 .283.283 0 01-.177-.077.28.28 0 01-.073-.173v-5.086a2.258 2.258 0 00-.089-.736 1.063 1.063 0 00-.231-.39 1.313 1.313 0 00-.32-.25.287.287 0 01-.155-.275h5.4l.04.945a1.313 1.313 0 00-.368-.166 1.581 1.581 0 00-.442-.062h-1.97v2.151h2.445v.736H13.04v2.648h1.596a1.47 1.47 0 00.692-.122c.13-.067.244-.16.334-.275.066-.088.125-.18.177-.276a.243.243 0 01.232-.122c.04 0 .078.01.114.026l-.107.89zm5.745-2.338v2.941a2.71 2.71 0 00-.423-.055c-.17 0-.331-.018-.486-.018-.154 0-.345 0-.518.018a3.31 3.31 0 00-.453.055V48.83l-1.691-2.71a5.695 5.695 0 00-.184-.295 2.46 2.46 0 00-.214-.283 1.412 1.412 0 00-.33-.33 2 2 0 00-.27-.163.261.261 0 01-.139-.26h2.096a.677.677 0 01.25.036c.078.04.142.103.184.18l1.84 2.943 1.691-2.777a1.03 1.03 0 01.224-.29.496.496 0 01.339-.107h.573l-2.49 4.056zm10.183 2.952a2.317 2.317 0 01-1.213-.32 1.986 1.986 0 01-.368-.297 3.48 3.48 0 01-.346-.368l-3.188-3.943.066 4.94h-.872v-5.319a4.126 4.126 0 00-.048-.65.89.89 0 00-.26-.493 1.401 1.401 0 00-.302-.243.338.338 0 01-.184-.294h1.967a.596.596 0 01.265.051.699.699 0 01.199.177l3.644 4.442-.077-4.67h.883v6.987h-.166zm9.654-1.949a3.402 3.402 0 01-.824 1.144 3.626 3.626 0 01-1.232.736 4.524 4.524 0 01-1.518.25 4.413 4.413 0 01-1.57-.265 3.31 3.31 0 01-1.189-.736 3.27 3.27 0 01-.761-1.191 4.384 4.384 0 01-.269-1.585 3.377 3.377 0 01.32-1.49c.204-.424.496-.8.857-1.103.368-.31.791-.546 1.247-.699.474-.16.97-.243 1.471-.243a4.37 4.37 0 011.549.258 3.214 3.214 0 011.934 1.897c.184.494.276 1.018.268 1.545a3.703 3.703 0 01-.283 1.482zm-1.783-2.537a3.678 3.678 0 00-.276-.953 2 2 0 00-.56-.736 1.416 1.416 0 00-.93-.294 1.375 1.375 0 00-.93.302 2.089 2.089 0 00-.548.735 3.44 3.44 0 00-.265.975 7.414 7.414 0 00.007 1.982c.044.33.137.651.276.953.13.283.33.529.581.713.293.196.641.293.993.276.327.014.646-.1.89-.316.23-.216.41-.481.523-.776.125-.314.21-.643.25-.978.04-.309.06-.62.062-.93a7.024 7.024 0 00-.073-.953zm9.058 3.872a1.88 1.88 0 01-.096.493.24.24 0 01-.239.121h-4.49v-5.321a2.163 2.163 0 00-.103-.762 1.265 1.265 0 00-.545-.647.268.268 0 01-.147-.254h2.472a.177.177 0 01.202.203v5.822c0 .154.07.231.206.231h1.331c.192.01.383-.03.556-.114.176-.113.324-.267.43-.448a4.31 4.31 0 01.184-.284.272.272 0 01.224-.114.15.15 0 01.07 0h.059l-.114 1.074zm8.422-1.464a2.718 2.718 0 01-.736 1.082c-.36.332-.788.582-1.254.735-.562.18-1.15.265-1.74.254h-2.942v-5.3a2.574 2.574 0 00-.051-.584 1.353 1.353 0 00-.14-.368.964.964 0 00-.191-.243 1.633 1.633 0 00-.199-.154 1.243 1.243 0 01-.161-.129.272.272 0 01-.063-.191h3.262c.472-.002.943.032 1.409.103.45.067.887.21 1.29.423a3.31 3.31 0 011.291 1.224c.16.258.284.536.368.828.081.293.122.596.122.9a4.045 4.045 0 01-.265 1.42zm-1.898-2.408a2.674 2.674 0 00-.386-.942 1.971 1.971 0 00-.706-.64 2.232 2.232 0 00-1.078-.235c-.137 0-.275.008-.412.026-.108.01-.215.03-.32.062v4.976c-.004.1.015.2.056.29a.43.43 0 00.169.166c.078.04.163.063.25.07h.294a2.49 2.49 0 001.063-.202c.274-.127.512-.32.691-.563a2.31 2.31 0 00.368-.846c.08-.343.12-.695.118-1.048a5.307 5.307 0 00-.107-1.114zm8.584 3.427a2.02 2.02 0 01-.6.651 2.828 2.828 0 01-.897.408 4.03 4.03 0 01-1.103.144 5.377 5.377 0 01-1.17-.118 4.476 4.476 0 01-1.081-.408v-1.585c.247.372.545.708.886.996a1.88 1.88 0 001.236.423c.137.001.273-.019.405-.058a1.004 1.004 0 00.6-.453.776.776 0 00.095-.397.982.982 0 00-.228-.673 2.744 2.744 0 00-.57-.478 7.414 7.414 0 00-.736-.416 3.84 3.84 0 01-.735-.481 2.508 2.508 0 01-.567-.673 1.901 1.901 0 01-.232-.99c0-.334.11-.658.313-.923a2.25 2.25 0 01.802-.666 3.873 3.873 0 011.688-.367c.326-.003.65.026.97.088.294.063.581.152.858.268l.117 1.574a.24.24 0 01-.117.04.346.346 0 01-.28-.12 1.567 1.567 0 01-.217-.405 1.934 1.934 0 00-.217-.368 1.07 1.07 0 00-.368-.301 1.63 1.63 0 00-.702-.151 1.35 1.35 0 00-.368.055 1.307 1.307 0 00-.345.166.993.993 0 00-.258.268.736.736 0 00-.1.368c-.01.232.073.46.229.632.171.182.367.34.58.467.236.148.49.287.762.423.271.133.527.296.762.486.236.189.434.42.584.684a2 2 0 01.228.993c.009.314-.069.624-.224.897zm13.519.986h-.544a5.219 5.219 0 00-1 .088l-.909-2.52H71.8l-1.022 2.52h-.975l2.751-6.561a4.96 4.96 0 00.18-.482c.053-.15.083-.308.089-.467a.596.596 0 00-.107-.39 1.026 1.026 0 00-.243-.198 2.207 2.207 0 01-.246-.158.316.316 0 01-.107-.265h2.097a.79.79 0 01.662.257c.164.232.295.486.39.754l2.839 7.51a4.719 4.719 0 00-.545-.088zm-4.012-6.749l-1.434 3.494h2.699l-1.265-3.494zm14.413 6.767c-.166 0-.324-.018-.467-.018-.144 0-.331 0-.504.018a3.442 3.442 0 00-.456.055l-.971-5.027-2.368 5.149-2.174-5.042-1.037 4.924h-.857l1.177-5.26c.02-.08.035-.162.044-.245.012-.083.018-.167.018-.25a.945.945 0 00-.106-.475.982.982 0 00-.25-.28l-.287-.224a.305.305 0 01-.122-.25h2.111a.43.43 0 01.273.059.68.68 0 01.161.235l1.663 3.678 1.574-3.39c.067-.155.155-.3.26-.431a.607.607 0 01.457-.133h1.353a.702.702 0 00-.103.28 2.435 2.435 0 00-.025.309c0 .231.016.462.047.691.03.24.063.46.107.666l.949 5.038a3.972 3.972 0 00-.467-.077zm7.44-.559a1.81 1.81 0 01-.088.456.268.268 0 01-.284.158H91.08a1.986 1.986 0 01-.327 0 .283.283 0 01-.177-.077.257.257 0 01-.07-.173 2.273 2.273 0 010-.305v-4.781a2.258 2.258 0 00-.088-.736.97.97 0 00-.232-.39 1.313 1.313 0 00-.32-.25.287.287 0 01-.154-.275h5.402l.037.945a1.261 1.261 0 00-.368-.166 1.581 1.581 0 00-.44-.062h-1.969v2.151h2.439v.736H92.37v2.648h1.57a1.47 1.47 0 00.692-.122c.13-.067.244-.16.334-.275a1.86 1.86 0 00.177-.276.243.243 0 01.232-.122c.039 0 .078.01.114.026l-.085.89zm9.621.614a2.416 2.416 0 01-.25.026c-.107 0-.217 0-.331.022h-1.019a4.612 4.612 0 01-.478-.051 6.01 6.01 0 01-.5-.1 1.719 1.719 0 01-.442-.18 2.64 2.64 0 01-.647-.526c-.2-.218-.39-.446-.566-.684-.18-.239-.35-.47-.508-.699a4.292 4.292 0 00-.452-.555.97.97 0 00-.269-.187.912.912 0 00-.257-.056v2.98a2.88 2.88 0 00-.478-.063h-.916a2.82 2.82 0 00-.485.062v-5.347c.01-.24-.021-.48-.092-.71a1.103 1.103 0 00-.217-.39.79.79 0 00-.166-.15l-.162-.107a.544.544 0 01-.114-.11.254.254 0 01-.044-.159h3.571c.228 0 .456 0 .684.026.224.017.447.05.666.096.21.046.416.112.614.198.192.085.367.202.519.346.132.128.236.282.305.452.078.19.116.392.114.596.005.232-.05.461-.158.666a1.99 1.99 0 01-.408.518 3.637 3.637 0 01-1.107.618l.636.736c.29.33.559.647.81.945.209.256.43.502.665.736.193.204.404.39.632.555.181.136.387.235.607.29l.11.019H105c.052.02.077.042.077.066a.066.066 0 01-.051.121zm-3.928-5.641a1.103 1.103 0 00-.268-.434.89.89 0 00-.368-.214 1.644 1.644 0 00-.475-.07 3.336 3.336 0 00-.393.034c-.09.008-.18.022-.269.044v2.365a.283.283 0 00.06.198.32.32 0 00.146.103.82.82 0 00.203.04h.228c.2.007.4-.034.58-.12.146-.079.271-.188.368-.32.1-.143.171-.302.21-.471a2.5 2.5 0 00.063-.585 1.736 1.736 0 00-.085-.57zm6.668 5.586c-.18 0-.342-.018-.49-.018-.146 0-.334 0-.489.018-.149.01-.297.029-.445.055v-5.307a2.464 2.464 0 00-.088-.735.993.993 0 00-.231-.401 1.13 1.13 0 00-.317-.272.265.265 0 01-.154-.254h2.5c.126 0 .192.066.192.202v6.767a3.505 3.505 0 00-.478-.055zm8.429-4.947c-.17 0-.301-.117-.397-.367a2.475 2.475 0 00-.217-.49 1.103 1.103 0 00-.269-.304 1.445 1.445 0 00-.919-.269 1.725 1.725 0 00-.949.254c-.264.173-.488.4-.658.665-.172.282-.296.59-.368.913a4.23 4.23 0 00-.121.989c0 .357.041.712.125 1.06.081.333.215.652.397.944.178.279.42.51.706.677.32.177.682.265 1.048.254.34.007.675-.077.971-.243.284-.162.54-.37.758-.614v1.026c-.122.116-.263.21-.416.28-.174.08-.355.144-.54.19-.189.052-.38.088-.574.111a4.873 4.873 0 01-2.078-.206 3.678 3.678 0 01-1.254-.695 3.244 3.244 0 01-.846-1.14 3.678 3.678 0 01-.309-1.549 3.38 3.38 0 011.206-2.64c.371-.324.8-.573 1.265-.736a4.582 4.582 0 011.508-.25c.358 0 .714.04 1.063.118.33.07.645.194.934.368l.078 1.592a.246.246 0 01-.144.063zm7.672 4.929h-.482a3.17 3.17 0 00-.493.062l-.78-2.008h-2.806l-.86 2.008h-.868l2.328-5.384c.044-.11.092-.243.147-.39.048-.117.077-.241.085-.367a.394.394 0 00-.11-.306 1.078 1.078 0 00-.229-.169 1.615 1.615 0 01-.231-.14.25.25 0 01-.11-.217h2.059a1 1 0 01.342.052.581.581 0 01.228.158c.07.08.127.17.173.265.058.12.11.242.154.368l2.468 6.152a7.083 7.083 0 00-1.015-.084zm-3.06-5.414l-1.162 2.725h2.206l-1.044-2.725zm11.636 5.487a2.343 2.343 0 01-1.213-.32 2.115 2.115 0 01-.368-.297 3.898 3.898 0 01-.346-.368l-3.185-3.943.063 4.94h-.868v-5.319a4.126 4.126 0 00-.044-.647.894.894 0 00-.265-.493 1.401 1.401 0 00-.302-.242.346.346 0 01-.184-.295h1.972c.09-.003.18.014.26.052a.699.699 0 01.2.176l3.644 4.443-.073-4.67h.882v6.987l-.173-.004z"/>
	</g>
</svg>
