<svg xmlns="http://www.w3.org/2000/svg" width="68" height="38" fill="none" viewBox="0 0 68 38">
	<path fill="#FBBA00" d="M34.067 7.848L32.57 35.49l-5.23-13.824 2.99 13.824-8.606-11.21 5.977 11.585L6.407 20.92 25.1 36.63l-11.953-4.483 9.71 5.587c-8.879-.162-19.493-7.176-22.803-21.67 0 0 18.985.159 25.402 8.591-1.28-11.879 6.914-23.07 8.595-24.64 1.38 1.585 9.562 12.776 8.216 24.64 6.499-8.433 25.454-8.653 25.406-8.59-3.215 14.493-13.832 21.507-22.802 21.668l9.713-5.604-11.927 4.501 18.68-15.693-21.295 14.947 5.976-11.585-8.216 11.191 2.615-13.824-5.23 13.824-1.121-27.642z"/>
</svg>
