<svg xmlns="http://www.w3.org/2000/svg" width="24" height="24" fill="none" viewBox="0 0 24 24">
	<path fill="#FB0" d="M18.23 15.862c-.784-.773-1.762-.773-2.54 0-.594.589-1.188 1.178-1.771 1.776-.16.165-.295.2-.49.09-.383-.21-.793-.38-1.162-.609-1.721-1.082-3.163-2.474-4.44-4.041-.634-.779-1.198-1.612-1.592-2.55-.08-.19-.065-.314.09-.469.593-.574 1.172-1.163 1.756-1.751.813-.819.813-1.777-.005-2.6-.464-.469-.928-.928-1.392-1.397-.48-.479-.953-.963-1.437-1.437-.784-.763-1.762-.763-2.54.005-.599.589-1.172 1.193-1.781 1.771-.564.534-.848 1.188-.908 1.951-.095 1.243.21 2.415.638 3.558.879 2.365 2.216 4.465 3.837 6.391 2.19 2.605 4.805 4.666 7.864 6.153 1.377.668 2.804 1.182 4.356 1.267 1.068.06 1.996-.21 2.74-1.043.508-.569 1.082-1.087 1.62-1.631.8-.809.804-1.787.01-2.585-.947-.953-1.9-1.901-2.853-2.85zM17.277 11.885l1.84-.314a8.23 8.23 0 00-2.3-4.44 8.185 8.185 0 00-4.69-2.341l-.259 1.851A6.35 6.35 0 0115.5 8.452a6.349 6.349 0 011.777 3.433zM20.156 3.882A13.576 13.576 0 0012.372 0l-.26 1.851c2.565.36 4.89 1.522 6.726 3.353a11.762 11.762 0 013.299 6.362l1.84-.314a13.676 13.676 0 00-3.821-7.37z"/>
</svg>
