<svg xmlns="http://www.w3.org/2000/svg" width="15" height="17" fill="none" viewBox="0 0 15 17">
	<path fill="#172962" d="M8.536 11.1c-.142 0-.285.067-.428.206v2.877c.143.142.286.21.428.21.246 0 .372-.21.372-.636v-2.013c0-.427-.126-.644-.372-.644z"/>
	<path fill="#1D1D1B" d="M11.665 11.1c-.286 0-.43.217-.43.654v.437h.857v-.437c0-.437-.143-.654-.427-.654z"/>
	<path fill="#172962" fill-rule="evenodd" d="M13.442 7.859c-.485-.505-1.023-.556-1.326-.585a4.397 4.397 0 01-.09-.009c-1.976-.141-4.94-.141-4.94-.141h-.007s-2.964 0-4.942.141l-.089.01c-.303.028-.84.08-1.325.584C.3 8.286.16 9.252.16 9.252s-.14 1.136-.14 2.272v1.065c0 1.135.14 2.272.14 2.272s.139.966.562 1.391c.446.464 1.007.531 1.365.574.073.009.138.017.191.026 1.131.108 4.804.141 4.804.141s2.967-.004 4.943-.147a4.59 4.59 0 01.088-.009c.303-.028.842-.079 1.328-.585.424-.425.562-1.391.562-1.391s.14-1.137.14-2.272v-1.065c0-1.136-.14-2.272-.14-2.272s-.138-.966-.562-1.393zM3.133 15.105h-.952v-5.44H1.173v-.891H4.16v.89H3.133v5.441zm2.52 0h.857v-4.718h-.858v3.606c-.19.268-.369.401-.54.401-.114 0-.18-.069-.202-.201-.007-.028-.007-.132-.007-.332v-3.474h-.856v3.73c0 .333.028.56.075.702.086.24.276.352.552.352.314 0 .639-.191.979-.58v.514zm4.11-1.415c0 .435-.028.75-.086.95-.115.352-.343.531-.683.531-.306 0-.6-.17-.886-.523v.457H7.25V8.774h.857v2.067c.276-.34.57-.511.886-.511.34 0 .568.18.683.532.058.19.087.502.087.95v1.879zm1.473-.788h1.713v-.978c0-.504-.086-.872-.265-1.111-.24-.323-.581-.484-1.01-.484-.438 0-.779.161-1.026.484-.182.24-.265.607-.265 1.111v1.653c0 .5.093.873.275 1.109.247.323.588.485 1.036.485.447 0 .799-.17 1.036-.513.104-.151.172-.322.2-.511.008-.087.019-.276.019-.551v-.126h-.874c0 .343-.011.534-.019.58-.05.229-.172.344-.383.344-.294 0-.437-.219-.437-.656v-.836z" clip-rule="evenodd"/>
	<path fill="#172962" d="M4.822 6.652V4.06L5.976.255h-.97L4.35 2.767 3.67.255H2.66c.202.593.413 1.188.615 1.782.307.892.5 1.565.587 2.023v2.592h.96z"/>
	<path fill="#172962" fill-rule="evenodd" d="M8.083 6.23c-.24.324-.576.488-1.01.488-.432 0-.769-.164-1.007-.488-.185-.238-.27-.613-.27-1.121v-1.67c0-.51.085-.881.27-1.122.238-.327.575-.49 1.008-.49.433 0 .769.163 1.009.49.18.24.269.613.269 1.121v1.67c0 .509-.088.884-.27 1.122zm-1.01-3.626c-.278 0-.413.22-.413.662V5.27c0 .441.135.662.414.662.278 0 .411-.22.411-.662V3.266c0-.441-.133-.662-.411-.662z" clip-rule="evenodd"/>
	<path fill="#172962" d="M11.504 6.652V1.884h-.865v3.644c-.191.27-.373.405-.546.405-.116 0-.185-.07-.203-.202-.011-.028-.011-.133-.011-.336V1.884h-.863v3.77c0 .338.028.566.077.71.087.24.28.354.558.354.315 0 .643-.192.989-.586v.52h.864z"/>
</svg>
