<svg xmlns="http://www.w3.org/2000/svg" width="64" height="52" fill="none" viewBox="0 0 64 52">
	<path fill="#172962" fill-rule="evenodd" d="M42.755 4.146l20.053 7.645c.365.14.607.49.607.88v4.301a.942.942 0 01-.607.88l-9.606 3.663V36.35c0 .286-.13.556-.353.735a33.575 33.575 0 01-4.393 2.979v4.806a3.584 3.584 0 012.636 3.452 3.583 3.583 0 01-3.578 3.58 3.583 3.583 0 01-3.579-3.58 3.584 3.584 0 012.637-3.452v-3.81a33.928 33.928 0 01-14.865 3.45 33.933 33.933 0 01-21.141-7.423.941.941 0 01-.353-.735v-7.804a.942.942 0 111.884 0v7.348a32.046 32.046 0 0019.61 6.731 32.046 32.046 0 0014.865-3.677V24.043l-14.529 5.54a.945.945 0 01-.671 0l-19.275-7.35v2.546a.942.942 0 11-1.884 0v-3.264L.606 17.853a.943.943 0 01-.606-.88v-4.301c0-.39.241-.741.606-.88L31.371.061a.942.942 0 01.672 0l7.266 2.77a.942.942 0 11-.671 1.76l-6.93-2.642L3.585 12.67l28.121 10.722L45.064 18.3l-13.746-6.224a.942.942 0 01.777-1.717l15.449 6.995 12.284-4.684-17.745-6.765a.942.942 0 11.671-1.76zm4.759 45.872c.934 0 1.695-.76 1.695-1.695 0-.934-.76-1.695-1.695-1.695s-1.695.76-1.695 1.695.76 1.695 1.695 1.695zm-45.63-35.98l28.88 11.012v2.285L1.883 16.323V14.04zM32.648 25.05v2.285l13.923-5.308v-2.285L32.65 25.05zm18.67 10.844a31.56 31.56 0 01-2.863 1.983V23.325l2.862-1.092v13.661zm-2.863-16.87v2.285l13.075-4.986V14.04l-13.075 4.985z" clip-rule="evenodd"/>
</svg>
