<svg xmlns="http://www.w3.org/2000/svg" width="52" height="52" fill="none" viewBox="0 0 52 52">
	<path fill="#172962" fill-rule="evenodd" d="M48.032 0h2.137a1.73 1.73 0 011.73 1.73v48.871a1.304 1.304 0 01-1.501 1.283 4.346 4.346 0 01-3.69-4.278V27.679h-1.994a2.595 2.595 0 01-2.483-3.346l2.748-9.077-1.42 2.185a3.43 3.43 0 01-1.694 1.368.61.61 0 00-.057.088l-.002.006c-.042.079-.105.147-2.977 3.28h-.001l-.001.001c-1.278 1.393-3.112 3.393-5.747 6.269l-.042.044a.658.658 0 00-.044.048c-.15.18-.15.486-.137 4.165.005 1.467.012 3.47.012 6.214a1.73 1.73 0 01-.865 1.497v8.775a2.681 2.681 0 01-2.162 2.665 2.595 2.595 0 01-3.028-2.557v-8.65h-1.73v8.65a2.595 2.595 0 01-3.027 2.557 2.681 2.681 0 01-2.162-2.665v-8.78a1.73 1.73 0 01-.866-1.496c0-2.453.005-4.316.008-5.733.01-4.2.01-4.493-.135-4.651a.723.723 0 00-.035-.035l-.048-.048-6.074-6.626c-2.556-2.787-2.615-2.851-2.654-2.926l-.003-.005a.526.526 0 00-.056-.088 3.442 3.442 0 01-1.695-1.37L5.19 12.584v35.02a4.346 4.346 0 01-3.691 4.282A1.302 1.302 0 010 50.6V1.73C0 .775.775 0 1.73 0h2.136a1.73 1.73 0 011.435.762l8.837 12.918c.49.749.67 1.66.497 2.538l6.884 7.512a.859.859 0 001.005.19 6.012 6.012 0 012.56-.566c.236 0 .458-.002.67-.003 1.42-.012 2.358-.02 3.62.57.34.165.75.088 1.006-.191l6.883-7.512a3.417 3.417 0 01.486-2.52L46.6.759A1.73 1.73 0 0148.032 0zM1.73 50.053a2.613 2.613 0 001.73-2.447V27.679H1.73v22.374zM5.05 9.19a.865.865 0 00-1.59.47v16.29H1.73V1.73h2.14l8.83 12.91a1.73 1.73 0 01-.53 2.388 1.772 1.772 0 01-2.378-.527L5.05 9.191zm26.082 19.986c-.04-.696.203-1.38.674-1.895l7.739-8.443a3.262 3.262 0 01-1.452-.965l-6.437 7.024a2.585 2.585 0 01-3.017.59 4.276 4.276 0 00-1.825-.404c-.262 0-.502-.002-.726-.005-1.206-.012-1.914-.02-2.832.41a2.584 2.584 0 01-3.015-.59l-6.435-7.025a3.26 3.26 0 01-1.452.966l7.74 8.443c.47.514.712 1.197.672 1.893-.006.078-.006 9.748-.006 9.748.477 0 .864.387.864.865v9.407a.867.867 0 001.73.108v-8.65c0-.956.775-1.73 1.73-1.73h1.73c.956 0 1.73.775 1.73 1.73v8.65a.865.865 0 001.016.85.951.951 0 00.714-.958V39.79c0-.478.387-.865.865-.865 0-8.064 0-9.587-.007-9.747zm12.754-4.343l4.515-14.921a.865.865 0 00-1.556-.722l-4.739 7.313a1.773 1.773 0 01-2.376.523 1.73 1.73 0 01-.541-2.37L48.032 1.73h2.137v24.22h-5.455a.865.865 0 01-.828-1.116zm4.553 22.772a2.612 2.612 0 001.73 2.447V27.679h-1.73v19.927z" clip-rule="evenodd"/>
</svg>
