<svg xmlns="http://www.w3.org/2000/svg" width="52" height="52" fill="none" viewBox="0 0 52 52">
	<path fill="#172962" fill-rule="evenodd" d="M26 0c6.945 0 13.474 2.704 18.385 7.615C49.295 12.526 52 19.055 52 26c0 6.945-2.704 13.474-7.615 18.385C39.474 49.295 32.945 52 26 52c-6.945 0-13.474-2.704-18.385-7.615C2.705 39.474 0 32.945 0 26c0-6.945 2.704-13.474 7.615-18.385C12.526 2.705 19.055 0 26 0zM2.072 26c0 13.194 10.734 23.928 23.928 23.928S49.928 39.194 49.928 26 39.194 2.072 26 2.072 2.072 12.806 2.072 26z" clip-rule="evenodd"/>
	<path fill="#172962" fill-rule="evenodd" d="M4.083 26C4.083 13.915 13.915 4.083 26 4.083S47.917 13.915 47.917 26 38.085 47.917 26 47.917 4.083 38.085 4.083 26zm36.609 7.286l2.987 1.725a19.7 19.7 0 002.14-7.975h-3.453a1.036 1.036 0 110-2.072h3.452a19.704 19.704 0 00-2.14-7.975l-2.986 1.725a1.035 1.035 0 11-1.036-1.794l2.983-1.723a20.005 20.005 0 00-5.836-5.836l-1.723 2.983a1.035 1.035 0 11-1.794-1.036l1.725-2.987a19.704 19.704 0 00-7.975-2.14v3.453a1.036 1.036 0 11-2.072 0V6.182c-2.859.147-5.56.903-7.975 2.14l1.725 2.987a1.036 1.036 0 11-1.794 1.035l-1.723-2.983a20.004 20.004 0 00-5.837 5.836l2.984 1.723a1.036 1.036 0 11-1.036 1.794l-2.987-1.725a19.703 19.703 0 00-2.14 7.975h3.452a1.036 1.036 0 110 2.072H6.182c.147 2.859.903 5.56 2.139 7.975l2.988-1.725a1.036 1.036 0 111.035 1.794l-2.983 1.723a20.005 20.005 0 005.836 5.836l1.723-2.983a1.036 1.036 0 011.794 1.036l-1.725 2.987a19.705 19.705 0 007.975 2.14v-3.453a1.036 1.036 0 012.072 0v3.452a19.704 19.704 0 007.975-2.14l-1.725-2.986a1.036 1.036 0 111.794-1.036l1.723 2.983a20.007 20.007 0 005.837-5.836l-2.984-1.723a1.036 1.036 0 111.036-1.794z" clip-rule="evenodd"/>
	<path fill="#172962" fill-rule="evenodd" d="M27.036 16.47v6.646A3.07 3.07 0 0129.064 26a3.068 3.068 0 01-3.609 3.015l-1.643 2.847a1.035 1.035 0 11-1.794-1.036l1.644-2.848A3.05 3.05 0 0122.936 26a3.07 3.07 0 012.028-2.884V16.47a1.036 1.036 0 112.072 0zM25.007 26a.994.994 0 001.986 0 .994.994 0 00-1.986 0z" clip-rule="evenodd"/>
	<path fill="#172962" d="M26 12.016c-.572 0-1.036.464-1.036 1.036v.414a1.036 1.036 0 102.072 0v-.414c0-.572-.464-1.036-1.036-1.036z"/>
</svg>
