<svg xmlns="http://www.w3.org/2000/svg" width="44" height="52" fill="none" viewBox="0 0 44 52">
	<path fill="#172962" fill-rule="evenodd" d="M30.483 50.207h-3.586v-4.483a.897.897 0 00-.897-.896h-8.965a.897.897 0 00-.897.896v4.483h-3.586v-7.173h-1.793v8.07c0 .495.401.896.896.896H31.38a.897.897 0 00.897-.897v-8.069h-1.793v7.173zm-5.38 0h-2.69V46.62h2.69v3.586zm-4.482-3.586h-2.69v3.586h2.69V46.62z" clip-rule="evenodd"/>
	<path fill="#172962" fill-rule="evenodd" d="M8.069 34.069h31.38a3.59 3.59 0 013.586 3.586V49.31a.897.897 0 01-.897.897h-5.38a.897.897 0 01-.896-.897v-6.276h1.793v5.38h3.586v-5.38a1.795 1.795 0 00-1.793-1.793H8.07a3.59 3.59 0 01-3.586-3.586v-5.38a3.59 3.59 0 013.586-3.585h2.69v-1.793h1.793v5.379h-1.793v-1.793h-2.69a1.793 1.793 0 100 3.586zm0 5.38h31.38c.63-.001 1.248.165 1.792.482v-2.276a1.795 1.795 0 00-1.793-1.793H8.07c-.63 0-1.248-.166-1.793-.482v2.275c.001.99.803 1.792 1.793 1.793z" clip-rule="evenodd"/>
	<path fill="#172962" fill-rule="evenodd" d="M34.965 28.69a1.795 1.795 0 001.794-1.793 1.795 1.795 0 00-1.794-1.794H3.586A3.59 3.59 0 010 21.517V3.587c0-.238.094-.467.263-.635l2.69-2.69a.897.897 0 011.267 0l2.69 2.69a.897.897 0 01.262.634v12.552H5.38V3.958L3.586 2.163 1.793 3.957v12.18c.001.99.803 1.793 1.793 1.794h31.38a3.59 3.59 0 013.586 3.586v5.38a3.59 3.59 0 01-3.587 3.586h-2.69v1.793h-1.792v-5.38h1.793v1.794h2.69zM1.794 19.242v2.275c.001.99.803 1.792 1.793 1.793h31.38c.63 0 1.248.166 1.793.483v-2.276a1.795 1.795 0 00-1.794-1.793H3.586c-.63 0-1.248-.166-1.793-.482z" clip-rule="evenodd"/>
	<path fill="#172962" fill-rule="evenodd" d="M10.759 8.965h-.897a.897.897 0 01-.896-.896V4.483c0-.495.401-.897.896-.897h23.31c.496 0 .897.402.897.897v3.586a.897.897 0 01-.897.896h-.896v7.173h-1.793V8.965H12.552v7.173h-1.793V8.965zM32.276 5.38H10.759v1.793h21.517V5.38z" clip-rule="evenodd"/>
	<path fill="#172962" d="M15.241 10.759h1.793v1.793h-1.793v-1.793zM18.828 10.759h1.793v1.793h-1.793v-1.793zM22.414 10.759h1.793v1.793h-1.793v-1.793zM26 10.759h1.793v1.793H26v-1.793zM15.241 14.345h1.793v1.793h-1.793v-1.793zM18.828 14.345h1.793v1.793h-1.793v-1.793zM22.414 14.345h1.793v1.793h-1.793v-1.793zM26 14.345h1.793v1.793H26v-1.793zM15.241 26.897h1.793v1.793h-1.793v-1.793zM18.828 26.897h1.793v1.793h-1.793v-1.793zM22.414 26.897h1.793v1.793h-1.793v-1.793zM26 26.897h1.793v1.793H26v-1.793zM15.241 30.483h1.793v1.793h-1.793v-1.793zM18.828 30.483h1.793v1.793h-1.793v-1.793zM22.414 30.483h1.793v1.793h-1.793v-1.793zM26 30.483h1.793v1.793H26v-1.793z"/>
</svg>
