<svg xmlns="http://www.w3.org/2000/svg" width="67" height="32" fill="none" viewBox="0 0 67 32">
	<path fill="#172962" fill-rule="evenodd" d="M60.473 11.112H65.1c.54 0 .977.438.977.977v7.57c0 .54-.437.977-.977.977h-4.628v4.872a2.672 2.672 0 01-2.67 2.67h-3.137c-.248 0-.488-.037-.716-.101v.983a2.672 2.672 0 01-2.67 2.669h-5.182a2.672 2.672 0 01-2.67-2.67v-8.423H22.65v8.424a2.672 2.672 0 01-2.67 2.669h-5.182a2.672 2.672 0 01-2.67-2.67v-.982c-.228.064-.468.1-.716.1H8.275a2.672 2.672 0 01-2.67-2.67v-4.87H.977A.976.976 0 010 19.66v-7.571c0-.54.437-.977.977-.977h4.628V6.241a2.672 2.672 0 012.67-2.67h3.137c.248 0 .488.037.716.1V2.69a2.672 2.672 0 012.67-2.67h5.182a2.672 2.672 0 012.67 2.67v8.423h20.778V2.69a2.672 2.672 0 012.67-2.67h5.182a2.672 2.672 0 012.67 2.67v.983c.228-.064.468-.1.716-.1h3.137a2.672 2.672 0 012.67 2.669v4.871zm-58.52 7.571h3.652v-5.618H1.953v5.618zm10.175 6.825a.717.717 0 01-.716.716H8.275a.717.717 0 01-.716-.716V6.241c0-.395.32-.717.716-.717h3.137c.395 0 .716.322.716.717v19.267zm8.568-5.848V2.689a.717.717 0 00-.716-.716h-5.183a.717.717 0 00-.716.716V29.06c0 .395.322.716.716.716h5.183a.717.717 0 00.716-.716v-9.4zm22.732-.977H22.65v-5.618h20.778v5.618zm8.569 6.825V2.69a.717.717 0 00-.717-.717h-5.182a.717.717 0 00-.716.716V29.06c0 .396.32.717.716.717h5.182a.717.717 0 00.717-.716v-3.552zm6.523-13.42v13.42a.717.717 0 01-.717.716h-3.137a.717.717 0 01-.716-.716V6.241c0-.395.321-.717.716-.717h3.137c.395 0 .717.322.717.717v5.848zm1.953 6.595h3.651v-5.618h-3.651v5.618z" clip-rule="evenodd"/>
</svg>
