<svg xmlns="http://www.w3.org/2000/svg" width="36" height="52" fill="none" viewBox="0 0 36 52">
	<path fill="#172962" fill-rule="evenodd" d="M33.572 42.894a.762.762 0 111.523 0v7.162A1.946 1.946 0 0133.151 52h-20.35a.762.762 0 110-1.523h3.047l-2.39-2.63a1.366 1.366 0 01-.327-1.12l2.277-13.453-.613-.924-.105.075c-.296.215-.549.398-.986.398-.497 0-.964-.278-1.194-.739l-2.402-4.814-5.467 2.12c-.178.076-3.072 1.367-3.072 4.797v15.869c0 .232.189.42.42.42h4.096v-15a.762.762 0 011.523 0v15h1.639a.762.762 0 110 1.524H1.99a1.946 1.946 0 01-1.945-1.944V34.187c0-4.504 3.857-6.14 4.02-6.208l.015-.006 9.097-3.527v-2.023a7.062 7.062 0 01-2.855-4.808 3.296 3.296 0 01-1.936-.79 3.228 3.228 0 01-1.124-2.45c0-.752.277-1.462.786-2.039V9.441C8.048 4.235 12.283 0 17.488 0c5.206 0 9.44 4.235 9.44 9.44v2.822a3.23 3.23 0 01.787 2.113c0 .943-.41 1.837-1.124 2.45-.546.47-1.215.74-1.937.79a7.137 7.137 0 01-2.7 4.695v2.136l9.106 3.527.015.006c.164.067 4.02 1.704 4.02 6.208v5.152a.762.762 0 11-1.523 0v-5.152c0-3.418-2.875-4.712-3.073-4.797l-5.472-2.12-2.402 4.814c-.229.46-.695.739-1.193.739-.438 0-.693-.185-.985-.396-.034-.026-.07-.051-.106-.077l-.614.924 2.278 13.453a1.366 1.366 0 01-.326 1.119l-2.391 2.63h8.245v-15a.762.762 0 111.524 0v15h4.094a.42.42 0 00.42-.42v-7.162zm-12.21-11.688l2.239-4.488-2.167-.84-2.453 3.03-.313.385 2.522 1.791.171.122zm-2.264.261l-.58.875h-1.9l-.58-.875 1.53-1.087 1.53 1.087zm-4.397-8.2v1.425l2.867 3.539 2.862-3.533v-1.48a7.15 7.15 0 01-2.85.594 7.727 7.727 0 01-2.88-.546zm11.49-8.892c0 .499-.216.971-.593 1.295-.25.215-.55.352-.88.405v-3.4a1.723 1.723 0 011.473 1.7zm-17.405 0c0 .824.587 1.556 1.473 1.7v-3.361c-.798.184-1.473.847-1.473 1.661zm1.514-3.214a3.77 3.77 0 00-.729.164V9.441c0-4.366 3.552-7.917 7.917-7.917 4.366 0 7.917 3.551 7.917 7.917v1.832a3.388 3.388 0 00-.687-.133v-.006c0-.154 0-.27-.022-.38-.069-.332-.34-.62-1.422-1.772l-.954-1.02a1.355 1.355 0 00-1.73-.21c-2.654 1.733-5.891 2.603-8.878 2.389a1.354 1.354 0 00-1.412 1.02zm1.482.762v4.752c0 2.92 2.326 5.614 5.799 5.614a5.624 5.624 0 005.614-5.614v-5.53c-.128-.156-.432-.48-.944-1.026-.261-.279-.576-.614-.949-1.015-2.785 1.784-6.232 2.76-9.52 2.568v.25zm1.992 19.283l-2.24-4.488 2.163-.838 2.767 3.415-2.69 1.911zm3.079 2.659l-2.205 13.027 2.92 3.211 2.919-3.211-2.205-13.027h-1.429z" clip-rule="evenodd"/>
</svg>
