<svg xmlns="http://www.w3.org/2000/svg" width="16" height="16" fill="none" viewBox="0 0 16 16">
	<path fill="#172962" fill-rule="evenodd" d="M1.6 0h12.8c.88 0 1.6.72 1.6 1.6v12.8c0 .88-.72 1.6-1.6 1.6H1.6C.72 16 0 15.28 0 14.4V1.6C0 .72.72 0 1.6 0zm3.2 13.6V6.4H2.4v7.2h2.4zM3.6 5.04c-.8 0-1.44-.64-1.44-1.44 0-.8.64-1.44 1.44-1.44.8 0 1.44.64 1.44 1.44 0 .8-.64 1.44-1.44 1.44zm7.6 8.56h2.4V9.04c0-1.52-1.28-2.8-2.8-2.8-.72 0-1.6.48-2 1.12V6.4H6.4v7.2h2.4V9.36c0-.64.56-1.2 1.2-1.2.64 0 1.2.56 1.2 1.2v4.24z" clip-rule="evenodd"/>
</svg>
