<svg xmlns="http://www.w3.org/2000/svg" width="22" height="16" fill="none" viewBox="0 0 22 16">
	<path fill="#172962" fill-rule="evenodd" d="M19.878.364L10.635 8.45 1.392.364A2.616 2.616 0 012.66.029h15.95c.46 0 .888.127 1.267.335zm1.05 14.237c.21-.38.341-.813.341-1.28V2.688a2.64 2.64 0 00-.413-1.412l-6.643 5.812 6.715 7.514zm-7.716-6.64l-2.14 1.874a.664.664 0 01-.875 0l-2.14-1.873-6.8 7.61c.407.256.885.409 1.402.409H18.61c.517 0 .994-.153 1.402-.41l-6.801-7.61zM0 2.688c0-.52.156-1.002.414-1.412l6.642 5.81-6.715 7.516A2.626 2.626 0 010 13.322V2.687z" clip-rule="evenodd"/>
</svg>
