<?xml version="1.0" encoding="UTF-8"?>
<!DOCTYPE svg PUBLIC "-//W3C//DTD SVG 1.1//EN" "http://www.w3.org/Graphics/SVG/1.1/DTD/svg11.dtd">
<svg xmlns="http://www.w3.org/2000/svg" xmlns:xlink="http://www.w3.org/1999/xlink">
<symbol id="arrow-right" viewBox="0 0 28 13">
	<path d="M20.558.73c-.27.27-.27.7 0 .97l4.127 4.127H1.201a.69.69 0 100 1.38h23.484l-4.127 4.121a.684.684 0 000 .97c.27.27.7.27.97 0L26.828 7a.683.683 0 00.201-.488.683.683 0 00-.202-.488l-5.299-5.3a.7.7 0 00-.97.006z"/>
</symbol>
<symbol id="article-next" viewBox="0 0 16 31">
	<path fill="#fff" d="M13.9 15.088L.272 1.459a.851.851 0 010-1.208.851.851 0 011.208 0l14.235 14.236a.851.851 0 010 1.208L1.48 29.925a.86.86 0 01-.601.252.833.833 0 01-.6-.253.851.851 0 010-1.208L13.9 15.088z"/>
</symbol>
<symbol id="article-prev" viewBox="0 0 16 31">
	<path fill="#fff" d="M2.1 15.088L15.728 1.459a.851.851 0 000-1.208.851.851 0 00-1.208 0L.285 14.487a.851.851 0 000 1.208l14.235 14.23a.86.86 0 00.6.252.833.833 0 00.602-.253.851.851 0 000-1.208L2.1 15.088z"/>
</symbol>
<symbol id="burger" viewBox="0 0 18 16">
	<path fill="none" stroke="#172962" stroke-linecap="square" d="M1 .727h16M1 8h16M1 15.273h16"/>
</symbol>
<symbol id="cap" viewBox="0 0 30 24">
	<path fill="#172962" fill-rule="evenodd" d="M19.978 2.154l9.034 3.444a.425.425 0 01.274.397v1.938a.424.424 0 01-.274.396l-4.328 1.65v6.685a.42.42 0 01-.159.33c-.625.502-1.287.95-1.98 1.343v2.166a1.615 1.615 0 011.189 1.555c0 .889-.723 1.612-1.613 1.612a1.614 1.614 0 01-1.612-1.612c0-.742.504-1.369 1.188-1.555v-1.718A15.286 15.286 0 0115 20.34c-3.45 0-6.833-1.188-9.525-3.345a.424.424 0 01-.16-.331v-3.517a.424.424 0 11.85 0v3.311A14.439 14.439 0 0015 19.491c2.338 0 4.642-.578 6.697-1.657v-6.716l-6.546 2.496a.424.424 0 01-.302 0l-8.685-3.31v1.146a.424.424 0 11-.848 0V9.98L.987 8.33a.425.425 0 01-.273-.397V5.995c0-.176.109-.334.273-.397L14.85.314a.424.424 0 01.302 0l3.274 1.248a.424.424 0 11-.303.793L15 1.165 2.33 5.994 15 10.825l6.018-2.294-6.193-2.804a.424.424 0 01.35-.773l6.96 3.151 5.535-2.11-7.995-3.048a.424.424 0 11.303-.793zm2.144 20.667a.765.765 0 000-1.527.765.765 0 000 1.527zM1.562 6.611l13.014 4.961v1.03L1.563 7.64V6.61zm13.862 4.961v1.03l6.273-2.392V9.18l-6.273 2.392zm8.412 4.886c-.414.322-.845.62-1.29.893v-6.556l1.29-.492v6.155zm-1.29-7.601v1.03l5.891-2.247V6.61l-5.891 2.247z" clip-rule="evenodd"/>
</symbol>
<symbol id="close" viewBox="0 0 16 16">
	<path d="M.219 15.781c.11.11.246.164.396.164.15 0 .288-.054.397-.164L8 8.793l6.988 6.988c.11.11.246.164.397.164a.561.561 0 00.397-.957L8.792 8l6.988-6.988a.561.561 0 00-.793-.793L8 7.207 1.012.219a.561.561 0 00-.793.793L7.207 8 .219 14.988a.561.561 0 000 .793z"/>
</symbol>
<symbol id="down-arrow" viewBox="0 0 8 5">
	<path fill="#000" d="M7.809.108a.278.278 0 00-.393 0L3.962 3.57.502.11A.278.278 0 00.107.5l3.65 3.65a.271.271 0 00.197.082.283.283 0 00.197-.081l3.65-3.65a.272.272 0 00.007-.394z"/>
</symbol>
<symbol id="down" viewBox="0 0 16 8">
	<path fill="#172962" d="M7.787 6.95L.753.136a.45.45 0 00-.623 0 .416.416 0 000 .604l7.347 7.118a.45.45 0 00.624 0L15.445.74a.41.41 0 000-.6.45.45 0 00-.624 0L7.787 6.95z"/>
</symbol>
<symbol id="download" viewBox="0 0 24 24">
	<path fill="#172962" fill-rule="evenodd" d="M12 20.263l7.209-7.208-1.326-1.326-4.945 4.945V0h-1.876v16.674L6.117 11.73l-1.326 1.326L12 20.263zM0 24v-1.875h24V24H0z" clip-rule="evenodd"/>
</symbol>
<symbol id="instagram" viewBox="0 0 17 17">
	<path fill="#172962" fill-rule="evenodd" d="M8.002.002c2.173 0 2.446.01 3.299.049.851.038 1.433.174 1.942.371a3.925 3.925 0 011.417.923c.407.4.722.883.922 1.417.198.509.333 1.09.372 1.942.04.853.048 1.126.048 3.298 0 2.173-.009 2.445-.048 3.299-.039.851-.174 1.433-.372 1.942a4.09 4.09 0 01-2.34 2.34c-.508.197-1.09.332-1.941.371-.853.04-1.126.048-3.298.048-2.173 0-2.446-.009-3.299-.048-.851-.039-1.433-.174-1.942-.372a3.922 3.922 0 01-1.417-.922 3.922 3.922 0 01-.922-1.417C.225 12.733.09 12.153.05 11.3c-.04-.853-.049-1.126-.049-3.299 0-2.172.01-2.445.049-3.298.038-.851.174-1.433.371-1.942a3.925 3.925 0 01.923-1.417c.4-.407.883-.722 1.417-.923.51-.197 1.09-.333 1.942-.371C5.557.01 5.83.002 8.002.002zm0 1.442c-2.136 0-2.389.008-3.232.047-.78.035-1.204.165-1.486.275a2.479 2.479 0 00-.92.598c-.265.258-.47.573-.598.92-.11.282-.24.706-.276 1.486-.038.843-.046 1.096-.046 3.232 0 2.137.008 2.39.046 3.233.036.78.166 1.204.276 1.486.128.347.333.662.598.92.258.265.573.47.92.598.282.11.706.24 1.486.275.843.039 1.096.047 3.232.047 2.137 0 2.39-.008 3.233-.047.78-.035 1.204-.165 1.486-.275a2.65 2.65 0 001.518-1.518c.11-.282.24-.706.275-1.486.039-.843.047-1.096.047-3.233 0-2.136-.008-2.389-.047-3.232-.035-.78-.166-1.204-.275-1.486a2.48 2.48 0 00-.599-.92 2.478 2.478 0 00-.92-.598c-.281-.11-.705-.24-1.485-.275-.843-.039-1.096-.047-3.233-.047zm4.108 6.558a4.108 4.108 0 10-8.216 0 4.108 4.108 0 008.216 0zM8.003 10.67a2.667 2.667 0 100-5.333 2.667 2.667 0 000 5.333zm3.31-6.937a.96.96 0 101.92 0 .96.96 0 00-1.92 0z" clip-rule="evenodd"/>
</symbol>
<symbol id="linkedin" viewBox="0 0 16 16">
	<path fill="#172962" fill-rule="evenodd" d="M1.6 0h12.8c.88 0 1.6.72 1.6 1.6v12.8c0 .88-.72 1.6-1.6 1.6H1.6C.72 16 0 15.28 0 14.4V1.6C0 .72.72 0 1.6 0zm3.2 13.6V6.4H2.4v7.2h2.4zM3.6 5.04c-.8 0-1.44-.64-1.44-1.44 0-.8.64-1.44 1.44-1.44.8 0 1.44.64 1.44 1.44 0 .8-.64 1.44-1.44 1.44zm7.6 8.56h2.4V9.04c0-1.52-1.28-2.8-2.8-2.8-.72 0-1.6.48-2 1.12V6.4H6.4v7.2h2.4V9.36c0-.64.56-1.2 1.2-1.2.64 0 1.2.56 1.2 1.2v4.24z" clip-rule="evenodd"/>
</symbol>
<symbol id="logo-footer" viewBox="0 0 68 38">
	<path fill="#FBBA00" d="M34.067 7.848L32.57 35.49l-5.23-13.824 2.99 13.824-8.606-11.21 5.977 11.585L6.407 20.92 25.1 36.63l-11.953-4.483 9.71 5.587c-8.879-.162-19.493-7.176-22.803-21.67 0 0 18.985.159 25.402 8.591-1.28-11.879 6.914-23.07 8.595-24.64 1.38 1.585 9.562 12.776 8.216 24.64 6.499-8.433 25.454-8.653 25.406-8.59-3.215 14.493-13.832 21.507-22.802 21.668l9.713-5.604-11.927 4.501 18.68-15.693-21.295 14.947 5.976-11.585-8.216 11.191 2.615-13.824-5.23 13.824-1.121-27.642z"/>
</symbol>
<symbol id="logo" viewBox="0 0 133 52">
	<g fill="none">
		<path fill="#FBBA00" d="M67.067 7.848L65.57 35.49l-5.23-13.825 2.99 13.825-8.605-11.21L60.7 35.865 39.407 20.92 58.1 36.63l-11.953-4.483 9.71 5.586c-8.879-.161-19.493-7.175-22.803-21.669 0 0 18.985.158 25.402 8.591-1.28-11.879 6.915-23.07 8.595-24.64 1.38 1.585 9.562 12.776 8.216 24.64 6.499-8.433 25.454-8.653 25.406-8.59-3.214 14.493-13.832 21.507-22.802 21.668l9.713-5.604-11.927 4.501 18.68-15.693-21.295 14.947 5.977-11.585-8.216 11.191 2.614-13.825-5.23 13.825-1.121-27.642"/>
		<path fill="#172962" d="M9.687 51.771l-.235.037c-.162 0-.342.03-.537.04h-.526a6.414 6.414 0 01-.901-.077 2.96 2.96 0 01-1.799-.978c-.24-.27-.467-.55-.68-.842a33.985 33.985 0 01-.607-.857 3.917 3.917 0 00-.551-.673 1.298 1.298 0 00-.302-.243.706.706 0 00-.29-.077v3.678a2.722 2.722 0 00-.512-.074h-.474a5.55 5.55 0 00-.997.088v-6.546a3.284 3.284 0 00-.095-.908 1.313 1.313 0 00-.265-.49 1.416 1.416 0 00-.199-.15l-.169-.122a.61.61 0 01-.129-.128.298.298 0 01-.051-.188h3.825a8.804 8.804 0 011.574.136c.482.086.924.322 1.265.673.16.162.285.355.368.567.092.234.14.483.14.735a1.75 1.75 0 01-.2.828 2.788 2.788 0 01-.488.676 2.96 2.96 0 01-.63.5 2.6 2.6 0 01-.613.276l.625.791c.334.427.643.828.927 1.199.283.371.544.68.776.927.136.143.264.272.367.368.115.107.238.205.368.294.133.087.275.16.423.217.174.068.353.12.537.154.07.019.103.044.103.077a.066.066 0 01-.048.092zm-4.336-6.987a1.427 1.427 0 00-.522-.633 1.269 1.269 0 00-.438-.198 1.916 1.916 0 00-.437-.06 3.2 3.2 0 00-.696.067v3.07a.338.338 0 00.217.369c.159.049.324.072.49.07.24.006.48-.047.695-.155.19-.091.356-.223.489-.386.134-.18.23-.385.283-.603.062-.233.093-.473.092-.714 0-.282-.06-.561-.173-.82v-.007zm10.728 6.384a1.81 1.81 0 01-.088.456.272.272 0 01-.283.158h-3.954a1.986 1.986 0 01-.327 0 .283.283 0 01-.177-.077.28.28 0 01-.073-.173v-5.086a2.258 2.258 0 00-.089-.736 1.063 1.063 0 00-.231-.39 1.313 1.313 0 00-.32-.25.287.287 0 01-.155-.275h5.4l.04.945a1.313 1.313 0 00-.368-.166 1.581 1.581 0 00-.442-.062h-1.97v2.151h2.445v.736H13.04v2.648h1.596a1.47 1.47 0 00.692-.122c.13-.067.244-.16.334-.275.066-.088.125-.18.177-.276a.243.243 0 01.232-.122c.04 0 .078.01.114.026l-.107.89zm5.745-2.338v2.941a2.71 2.71 0 00-.423-.055c-.17 0-.331-.018-.486-.018-.154 0-.345 0-.518.018a3.31 3.31 0 00-.453.055V48.83l-1.691-2.71a5.695 5.695 0 00-.184-.295 2.46 2.46 0 00-.214-.283 1.412 1.412 0 00-.33-.33 2 2 0 00-.27-.163.261.261 0 01-.139-.26h2.096a.677.677 0 01.25.036c.078.04.142.103.184.18l1.84 2.943 1.691-2.777a1.03 1.03 0 01.224-.29.496.496 0 01.339-.107h.573l-2.49 4.056zm10.183 2.952a2.317 2.317 0 01-1.213-.32 1.986 1.986 0 01-.368-.297 3.48 3.48 0 01-.346-.368l-3.188-3.943.066 4.94h-.872v-5.319a4.126 4.126 0 00-.048-.65.89.89 0 00-.26-.493 1.401 1.401 0 00-.302-.243.338.338 0 01-.184-.294h1.967a.596.596 0 01.265.051.699.699 0 01.199.177l3.644 4.442-.077-4.67h.883v6.987h-.166zm9.654-1.949a3.402 3.402 0 01-.824 1.144 3.626 3.626 0 01-1.232.736 4.524 4.524 0 01-1.518.25 4.413 4.413 0 01-1.57-.265 3.31 3.31 0 01-1.189-.736 3.27 3.27 0 01-.761-1.191 4.384 4.384 0 01-.269-1.585 3.377 3.377 0 01.32-1.49c.204-.424.496-.8.857-1.103.368-.31.791-.546 1.247-.699.474-.16.97-.243 1.471-.243a4.37 4.37 0 011.549.258 3.214 3.214 0 011.934 1.897c.184.494.276 1.018.268 1.545a3.703 3.703 0 01-.283 1.482zm-1.783-2.537a3.678 3.678 0 00-.276-.953 2 2 0 00-.56-.736 1.416 1.416 0 00-.93-.294 1.375 1.375 0 00-.93.302 2.089 2.089 0 00-.548.735 3.44 3.44 0 00-.265.975 7.414 7.414 0 00.007 1.982c.044.33.137.651.276.953.13.283.33.529.581.713.293.196.641.293.993.276.327.014.646-.1.89-.316.23-.216.41-.481.523-.776.125-.314.21-.643.25-.978.04-.309.06-.62.062-.93a7.024 7.024 0 00-.073-.953zm9.058 3.872a1.88 1.88 0 01-.096.493.24.24 0 01-.239.121h-4.49v-5.321a2.163 2.163 0 00-.103-.762 1.265 1.265 0 00-.545-.647.268.268 0 01-.147-.254h2.472a.177.177 0 01.202.203v5.822c0 .154.07.231.206.231h1.331c.192.01.383-.03.556-.114.176-.113.324-.267.43-.448a4.31 4.31 0 01.184-.284.272.272 0 01.224-.114.15.15 0 01.07 0h.059l-.114 1.074zm8.422-1.464a2.718 2.718 0 01-.736 1.082c-.36.332-.788.582-1.254.735-.562.18-1.15.265-1.74.254h-2.942v-5.3a2.574 2.574 0 00-.051-.584 1.353 1.353 0 00-.14-.368.964.964 0 00-.191-.243 1.633 1.633 0 00-.199-.154 1.243 1.243 0 01-.161-.129.272.272 0 01-.063-.191h3.262c.472-.002.943.032 1.409.103.45.067.887.21 1.29.423a3.31 3.31 0 011.291 1.224c.16.258.284.536.368.828.081.293.122.596.122.9a4.045 4.045 0 01-.265 1.42zm-1.898-2.408a2.674 2.674 0 00-.386-.942 1.971 1.971 0 00-.706-.64 2.232 2.232 0 00-1.078-.235c-.137 0-.275.008-.412.026-.108.01-.215.03-.32.062v4.976c-.004.1.015.2.056.29a.43.43 0 00.169.166c.078.04.163.063.25.07h.294a2.49 2.49 0 001.063-.202c.274-.127.512-.32.691-.563a2.31 2.31 0 00.368-.846c.08-.343.12-.695.118-1.048a5.307 5.307 0 00-.107-1.114zm8.584 3.427a2.02 2.02 0 01-.6.651 2.828 2.828 0 01-.897.408 4.03 4.03 0 01-1.103.144 5.377 5.377 0 01-1.17-.118 4.476 4.476 0 01-1.081-.408v-1.585c.247.372.545.708.886.996a1.88 1.88 0 001.236.423c.137.001.273-.019.405-.058a1.004 1.004 0 00.6-.453.776.776 0 00.095-.397.982.982 0 00-.228-.673 2.744 2.744 0 00-.57-.478 7.414 7.414 0 00-.736-.416 3.84 3.84 0 01-.735-.481 2.508 2.508 0 01-.567-.673 1.901 1.901 0 01-.232-.99c0-.334.11-.658.313-.923a2.25 2.25 0 01.802-.666 3.873 3.873 0 011.688-.367c.326-.003.65.026.97.088.294.063.581.152.858.268l.117 1.574a.24.24 0 01-.117.04.346.346 0 01-.28-.12 1.567 1.567 0 01-.217-.405 1.934 1.934 0 00-.217-.368 1.07 1.07 0 00-.368-.301 1.63 1.63 0 00-.702-.151 1.35 1.35 0 00-.368.055 1.307 1.307 0 00-.345.166.993.993 0 00-.258.268.736.736 0 00-.1.368c-.01.232.073.46.229.632.171.182.367.34.58.467.236.148.49.287.762.423.271.133.527.296.762.486.236.189.434.42.584.684a2 2 0 01.228.993c.009.314-.069.624-.224.897zm13.519.986h-.544a5.219 5.219 0 00-1 .088l-.909-2.52H71.8l-1.022 2.52h-.975l2.751-6.561a4.96 4.96 0 00.18-.482c.053-.15.083-.308.089-.467a.596.596 0 00-.107-.39 1.026 1.026 0 00-.243-.198 2.207 2.207 0 01-.246-.158.316.316 0 01-.107-.265h2.097a.79.79 0 01.662.257c.164.232.295.486.39.754l2.839 7.51a4.719 4.719 0 00-.545-.088zm-4.012-6.749l-1.434 3.494h2.699l-1.265-3.494zm14.413 6.767c-.166 0-.324-.018-.467-.018-.144 0-.331 0-.504.018a3.442 3.442 0 00-.456.055l-.971-5.027-2.368 5.149-2.174-5.042-1.037 4.924h-.857l1.177-5.26c.02-.08.035-.162.044-.245.012-.083.018-.167.018-.25a.945.945 0 00-.106-.475.982.982 0 00-.25-.28l-.287-.224a.305.305 0 01-.122-.25h2.111a.43.43 0 01.273.059.68.68 0 01.161.235l1.663 3.678 1.574-3.39c.067-.155.155-.3.26-.431a.607.607 0 01.457-.133h1.353a.702.702 0 00-.103.28 2.435 2.435 0 00-.025.309c0 .231.016.462.047.691.03.24.063.46.107.666l.949 5.038a3.972 3.972 0 00-.467-.077zm7.44-.559a1.81 1.81 0 01-.088.456.268.268 0 01-.284.158H91.08a1.986 1.986 0 01-.327 0 .283.283 0 01-.177-.077.257.257 0 01-.07-.173 2.273 2.273 0 010-.305v-4.781a2.258 2.258 0 00-.088-.736.97.97 0 00-.232-.39 1.313 1.313 0 00-.32-.25.287.287 0 01-.154-.275h5.402l.037.945a1.261 1.261 0 00-.368-.166 1.581 1.581 0 00-.44-.062h-1.969v2.151h2.439v.736H92.37v2.648h1.57a1.47 1.47 0 00.692-.122c.13-.067.244-.16.334-.275a1.86 1.86 0 00.177-.276.243.243 0 01.232-.122c.039 0 .078.01.114.026l-.085.89zm9.621.614a2.416 2.416 0 01-.25.026c-.107 0-.217 0-.331.022h-1.019a4.612 4.612 0 01-.478-.051 6.01 6.01 0 01-.5-.1 1.719 1.719 0 01-.442-.18 2.64 2.64 0 01-.647-.526c-.2-.218-.39-.446-.566-.684-.18-.239-.35-.47-.508-.699a4.292 4.292 0 00-.452-.555.97.97 0 00-.269-.187.912.912 0 00-.257-.056v2.98a2.88 2.88 0 00-.478-.063h-.916a2.82 2.82 0 00-.485.062v-5.347c.01-.24-.021-.48-.092-.71a1.103 1.103 0 00-.217-.39.79.79 0 00-.166-.15l-.162-.107a.544.544 0 01-.114-.11.254.254 0 01-.044-.159h3.571c.228 0 .456 0 .684.026.224.017.447.05.666.096.21.046.416.112.614.198.192.085.367.202.519.346.132.128.236.282.305.452.078.19.116.392.114.596.005.232-.05.461-.158.666a1.99 1.99 0 01-.408.518 3.637 3.637 0 01-1.107.618l.636.736c.29.33.559.647.81.945.209.256.43.502.665.736.193.204.404.39.632.555.181.136.387.235.607.29l.11.019H105c.052.02.077.042.077.066a.066.066 0 01-.051.121zm-3.928-5.641a1.103 1.103 0 00-.268-.434.89.89 0 00-.368-.214 1.644 1.644 0 00-.475-.07 3.336 3.336 0 00-.393.034c-.09.008-.18.022-.269.044v2.365a.283.283 0 00.06.198.32.32 0 00.146.103.82.82 0 00.203.04h.228c.2.007.4-.034.58-.12.146-.079.271-.188.368-.32.1-.143.171-.302.21-.471a2.5 2.5 0 00.063-.585 1.736 1.736 0 00-.085-.57zm6.668 5.586c-.18 0-.342-.018-.49-.018-.146 0-.334 0-.489.018-.149.01-.297.029-.445.055v-5.307a2.464 2.464 0 00-.088-.735.993.993 0 00-.231-.401 1.13 1.13 0 00-.317-.272.265.265 0 01-.154-.254h2.5c.126 0 .192.066.192.202v6.767a3.505 3.505 0 00-.478-.055zm8.429-4.947c-.17 0-.301-.117-.397-.367a2.475 2.475 0 00-.217-.49 1.103 1.103 0 00-.269-.304 1.445 1.445 0 00-.919-.269 1.725 1.725 0 00-.949.254c-.264.173-.488.4-.658.665-.172.282-.296.59-.368.913a4.23 4.23 0 00-.121.989c0 .357.041.712.125 1.06.081.333.215.652.397.944.178.279.42.51.706.677.32.177.682.265 1.048.254.34.007.675-.077.971-.243.284-.162.54-.37.758-.614v1.026c-.122.116-.263.21-.416.28-.174.08-.355.144-.54.19-.189.052-.38.088-.574.111a4.873 4.873 0 01-2.078-.206 3.678 3.678 0 01-1.254-.695 3.244 3.244 0 01-.846-1.14 3.678 3.678 0 01-.309-1.549 3.38 3.38 0 011.206-2.64c.371-.324.8-.573 1.265-.736a4.582 4.582 0 011.508-.25c.358 0 .714.04 1.063.118.33.07.645.194.934.368l.078 1.592a.246.246 0 01-.144.063zm7.672 4.929h-.482a3.17 3.17 0 00-.493.062l-.78-2.008h-2.806l-.86 2.008h-.868l2.328-5.384c.044-.11.092-.243.147-.39.048-.117.077-.241.085-.367a.394.394 0 00-.11-.306 1.078 1.078 0 00-.229-.169 1.615 1.615 0 01-.231-.14.25.25 0 01-.11-.217h2.059a1 1 0 01.342.052.581.581 0 01.228.158c.07.08.127.17.173.265.058.12.11.242.154.368l2.468 6.152a7.083 7.083 0 00-1.015-.084zm-3.06-5.414l-1.162 2.725h2.206l-1.044-2.725zm11.636 5.487a2.343 2.343 0 01-1.213-.32 2.115 2.115 0 01-.368-.297 3.898 3.898 0 01-.346-.368l-3.185-3.943.063 4.94h-.868v-5.319a4.126 4.126 0 00-.044-.647.894.894 0 00-.265-.493 1.401 1.401 0 00-.302-.242.346.346 0 01-.184-.295h1.972c.09-.003.18.014.26.052a.699.699 0 01.2.176l3.644 4.443-.073-4.67h.882v6.987l-.173-.004z"/>
	</g>
</symbol>
<symbol id="mail-yellow" viewBox="0 0 24 18">
	<path fill="#FB0" d="M12 12L9.03 9.401.543 16.678c.308.287.725.465 1.184.465h20.548c.457 0 .872-.178 1.18-.465L14.97 9.401 12 12z"/>
	<path fill="#FB0" d="M23.458.465A1.727 1.727 0 0022.274 0H1.726a1.72 1.72 0 00-1.18.468L12 10.286 23.458.465zM0 1.505v14.242l8.285-7.04L0 1.505zm15.715 7.202L24 15.747V1.5l-8.285 7.207z"/>
</symbol>
<symbol id="mail" viewBox="0 0 22 16">
	<path fill="#172962" fill-rule="evenodd" d="M19.878.364L10.635 8.45 1.392.364A2.616 2.616 0 012.66.029h15.95c.46 0 .888.127 1.267.335zm1.05 14.237c.21-.38.341-.813.341-1.28V2.688a2.64 2.64 0 00-.413-1.412l-6.643 5.812 6.715 7.514zm-7.716-6.64l-2.14 1.874a.664.664 0 01-.875 0l-2.14-1.873-6.8 7.61c.407.256.885.409 1.402.409H18.61c.517 0 .994-.153 1.402-.41l-6.801-7.61zM0 2.688c0-.52.156-1.002.414-1.412l6.642 5.81-6.715 7.516A2.626 2.626 0 010 13.322V2.687z" clip-rule="evenodd"/>
</symbol>
<symbol id="minus" viewBox="0 0 12 12">
	<path fill="#172962" d="M12 5.714H0v.572h12v-.572z"/>
</symbol>
<symbol id="next" viewBox="0 0 9 16">
	<path fill="#000" d="M1.397 15.768a.548.548 0 01-.397.164.561.561 0 01-.397-.957L7.578 8 .603 1.026a.561.561 0 01.794-.794L8.78 7.603a.561.561 0 010 .794l-7.384 7.37z"/>
</symbol>
<symbol id="pag-next" viewBox="0 0 5 9">
	<path fill="#000" d="M.608 8.309a.278.278 0 010-.393L4.07 4.462.61 1.002A.278.278 0 011 .607l3.65 3.65a.271.271 0 01.082.197.283.283 0 01-.081.197l-3.65 3.65a.272.272 0 01-.394.007z"/>
</symbol>
<symbol id="pag-prev" viewBox="0 0 5 9">
	<path fill="#000" d="M4.392 8.309a.278.278 0 000-.393L.93 4.462l3.46-3.46A.278.278 0 004 .607L.35 4.257a.271.271 0 00-.082.197c0 .068.027.142.081.197l3.65 3.65a.272.272 0 00.394.007z"/>
</symbol>
<symbol id="phone-yellow" viewBox="0 0 24 24">
	<path fill="#FB0" d="M18.23 15.862c-.784-.773-1.762-.773-2.54 0-.594.589-1.188 1.178-1.771 1.776-.16.165-.295.2-.49.09-.383-.21-.793-.38-1.162-.609-1.721-1.082-3.163-2.474-4.44-4.041-.634-.779-1.198-1.612-1.592-2.55-.08-.19-.065-.314.09-.469.593-.574 1.172-1.163 1.756-1.751.813-.819.813-1.777-.005-2.6-.464-.469-.928-.928-1.392-1.397-.48-.479-.953-.963-1.437-1.437-.784-.763-1.762-.763-2.54.005-.599.589-1.172 1.193-1.781 1.771-.564.534-.848 1.188-.908 1.951-.095 1.243.21 2.415.638 3.558.879 2.365 2.216 4.465 3.837 6.391 2.19 2.605 4.805 4.666 7.864 6.153 1.377.668 2.804 1.182 4.356 1.267 1.068.06 1.996-.21 2.74-1.043.508-.569 1.082-1.087 1.62-1.631.8-.809.804-1.787.01-2.585-.947-.953-1.9-1.901-2.853-2.85zm-.953-3.977l1.84-.314a8.23 8.23 0 00-2.3-4.44 8.185 8.185 0 00-4.69-2.341l-.259 1.851A6.35 6.35 0 0115.5 8.452a6.349 6.349 0 011.777 3.433zm2.879-8.003A13.576 13.576 0 0012.372 0l-.26 1.851c2.565.36 4.89 1.522 6.726 3.353a11.762 11.762 0 013.299 6.362l1.84-.314a13.676 13.676 0 00-3.821-7.37z"/>
</symbol>
<symbol id="play" viewBox="0 0 82 82">
	<path stroke="#fff" d="M41 81c22.091 0 40-17.909 40-40S63.091 1 41 1 1 18.909 1 41s17.909 40 40 40z" clip-rule="evenodd"/>
	<path fill="#fff" fill-rule="evenodd" d="M57.941 41.235L32.06 57.941V24.53l25.88 16.705z" clip-rule="evenodd"/>
</symbol>
<symbol id="plus" viewBox="0 0 12 12">
	<path fill="#172962" d="M12 5.714H6.286V0h-.572v5.714H0v.572h5.714V12h.572V6.286H12v-.572z"/>
</symbol>
<symbol id="prev" viewBox="0 0 9 16">
	<path fill="#000" d="M7.603 15.768c.11.109.247.164.397.164a.561.561 0 00.397-.957L1.422 8l6.975-6.974a.561.561 0 00-.794-.794L.22 7.603a.561.561 0 000 .794l7.384 7.37z"/>
</symbol>
<symbol id="search" viewBox="0 0 16 16">
	<path d="M6.236 12.403a6.056 6.056 0 003.938-1.435l4.787 4.786c.11.11.246.164.396.164a.561.561 0 00.397-.957l-4.786-4.787a6.158 6.158 0 001.435-3.938A6.169 6.169 0 006.236.068C2.844.068.068 2.844.068 6.236c0 3.405 2.776 6.167 6.168 6.167zm0-11.213a5.05 5.05 0 015.046 5.046 5.043 5.043 0 01-5.046 5.046A5.051 5.051 0 011.19 6.236 5.06 5.06 0 016.236 1.19z"/>
</symbol>
<symbol id="top" viewBox="0 0 12 27">
	<path fill="#172962" d="M.23 6.942c.27.27.7.27.97 0l4.127-4.127v23.484a.69.69 0 101.38 0V2.815l4.121 4.127c.27.27.701.27.97 0 .27-.27.27-.7 0-.97L6.5.672a.683.683 0 00-.488-.201.683.683 0 00-.488.202l-5.3 5.299a.7.7 0 00.006.97z"/>
</symbol>
<symbol id="twitter" viewBox="0 0 16 13">
	<path fill="#172962" d="M15.312 1.675a6.02 6.02 0 01-1.77.498A3.153 3.153 0 0014.897.424a6.07 6.07 0 01-1.958.766 3.04 3.04 0 00-2.25-.997c-1.701 0-3.082 1.415-3.082 3.16 0 .248.027.489.08.72C5.125 3.943 2.854 2.685 1.333.77a3.218 3.218 0 00-.418 1.59c0 1.097.545 2.064 1.372 2.632A3.027 3.027 0 01.89 4.597v.04c0 1.531 1.063 2.809 2.474 3.098a2.994 2.994 0 01-1.393.055c.393 1.256 1.53 2.17 2.88 2.195a6.087 6.087 0 01-4.564 1.31 8.583 8.583 0 004.725 1.419c5.67 0 8.77-4.816 8.77-8.993 0-.138-.002-.275-.007-.41a6.325 6.325 0 001.537-1.636z"/>
</symbol>
<symbol id="youtube" viewBox="0 0 15 17">
	<path fill="#172962" d="M8.536 11.1c-.142 0-.285.067-.428.206v2.877c.143.142.286.21.428.21.246 0 .372-.21.372-.636v-2.013c0-.427-.126-.644-.372-.644z"/>
	<path fill="#1D1D1B" d="M11.665 11.1c-.286 0-.43.217-.43.654v.437h.857v-.437c0-.437-.143-.654-.427-.654z"/>
	<path fill="#172962" fill-rule="evenodd" d="M13.442 7.859c-.485-.505-1.023-.556-1.326-.585a4.397 4.397 0 01-.09-.009c-1.976-.141-4.94-.141-4.94-.141h-.007s-2.964 0-4.942.141l-.089.01c-.303.028-.84.08-1.325.584C.3 8.286.16 9.252.16 9.252s-.14 1.136-.14 2.272v1.065c0 1.135.14 2.272.14 2.272s.139.966.562 1.391c.446.464 1.007.531 1.365.574.073.009.138.017.191.026 1.131.108 4.804.141 4.804.141s2.967-.004 4.943-.147a4.59 4.59 0 01.088-.009c.303-.028.842-.079 1.328-.585.424-.425.562-1.391.562-1.391s.14-1.137.14-2.272v-1.065c0-1.136-.14-2.272-.14-2.272s-.138-.966-.562-1.393zM3.133 15.105h-.952v-5.44H1.173v-.891H4.16v.89H3.133v5.441zm2.52 0h.857v-4.718h-.858v3.606c-.19.268-.369.401-.54.401-.114 0-.18-.069-.202-.201-.007-.028-.007-.132-.007-.332v-3.474h-.856v3.73c0 .333.028.56.075.702.086.24.276.352.552.352.314 0 .639-.191.979-.58v.514zm4.11-1.415c0 .435-.028.75-.086.95-.115.352-.343.531-.683.531-.306 0-.6-.17-.886-.523v.457H7.25V8.774h.857v2.067c.276-.34.57-.511.886-.511.34 0 .568.18.683.532.058.19.087.502.087.95v1.879zm1.473-.788h1.713v-.978c0-.504-.086-.872-.265-1.111-.24-.323-.581-.484-1.01-.484-.438 0-.779.161-1.026.484-.182.24-.265.607-.265 1.111v1.653c0 .5.093.873.275 1.109.247.323.588.485 1.036.485.447 0 .799-.17 1.036-.513.104-.151.172-.322.2-.511.008-.087.019-.276.019-.551v-.126h-.874c0 .343-.011.534-.019.58-.05.229-.172.344-.383.344-.294 0-.437-.219-.437-.656v-.836z" clip-rule="evenodd"/>
	<path fill="#172962" d="M4.822 6.652V4.06L5.976.255h-.97L4.35 2.767 3.67.255H2.66c.202.593.413 1.188.615 1.782.307.892.5 1.565.587 2.023v2.592h.96z"/>
	<path fill="#172962" fill-rule="evenodd" d="M8.083 6.23c-.24.324-.576.488-1.01.488-.432 0-.769-.164-1.007-.488-.185-.238-.27-.613-.27-1.121v-1.67c0-.51.085-.881.27-1.122.238-.327.575-.49 1.008-.49.433 0 .769.163 1.009.49.18.24.269.613.269 1.121v1.67c0 .509-.088.884-.27 1.122zm-1.01-3.626c-.278 0-.413.22-.413.662V5.27c0 .441.135.662.414.662.278 0 .411-.22.411-.662V3.266c0-.441-.133-.662-.411-.662z" clip-rule="evenodd"/>
	<path fill="#172962" d="M11.504 6.652V1.884h-.865v3.644c-.191.27-.373.405-.546.405-.116 0-.185-.07-.203-.202-.011-.028-.011-.133-.011-.336V1.884h-.863v3.77c0 .338.028.566.077.71.087.24.28.354.558.354.315 0 .643-.192.989-.586v.52h.864z"/>
</symbol>
</svg>