<svg xmlns="http://www.w3.org/2000/svg" width="16" height="24" fill="none" viewBox="0 0 16 24">
	<path fill="#172962" fill-rule="evenodd" d="M15.043 19.426a.335.335 0 11.67 0v3.148a.856.856 0 01-.855.855H5.913a.335.335 0 010-.67h1.339l-1.051-1.156a.6.6 0 01-.145-.482l.002-.01 1-5.914-.27-.406-.045.033c-.13.095-.241.175-.433.175a.586.586 0 01-.525-.325l-1.056-2.116-2.403.932c-.079.033-1.35.601-1.35 2.109v6.975c0 .102.082.185.184.185h1.8v-6.594a.335.335 0 01.67 0v6.594h.72a.335.335 0 110 .67H1.16a.855.855 0 01-.854-.855v-6.975c0-1.98 1.695-2.7 1.767-2.73l.006-.002 3.999-1.55v-.89a3.104 3.104 0 01-1.255-2.113 1.449 1.449 0 01-.851-.347 1.419 1.419 0 01-.494-1.077c0-.33.122-.643.345-.896V4.72A4.154 4.154 0 017.973.57a4.154 4.154 0 014.15 4.15v1.24a1.419 1.419 0 01-.149 2.006 1.45 1.45 0 01-.851.347 3.137 3.137 0 01-1.187 2.064v.939l4.003 1.55.006.003c.072.03 1.767.75 1.767 2.729v2.264a.335.335 0 01-.67 0V15.6c0-1.503-1.263-2.072-1.35-2.11l-2.405-.93-1.056 2.116a.586.586 0 01-.525.324c-.192 0-.304-.081-.432-.174a5.7 5.7 0 00-.047-.034l-.27.406 1.001 5.914.002.01a.6.6 0 01-.145.482L8.764 22.76h3.624v-6.594a.335.335 0 01.67 0v6.594h1.8a.185.185 0 00.185-.185v-3.148zm-5.368-5.138l.984-1.972-.952-.37-1.078 1.332-.138.17 1.184.84zm-.994.115l-.256.384H7.59l-.255-.384.673-.478.673.478zm-1.934-3.605v.627l1.26 1.556 1.259-1.553v-.65a3.144 3.144 0 01-1.253.26 3.4 3.4 0 01-1.266-.24zm5.051-3.908a.75.75 0 01-.26.57.78.78 0 01-.387.177V6.143a.757.757 0 01.647.747zm-7.65 0c0 .362.258.684.647.747V6.16c-.35.08-.647.372-.647.73zm.665-1.413a1.656 1.656 0 00-.32.073v-.83a3.484 3.484 0 013.48-3.48 3.484 3.484 0 013.48 3.48v.806a1.489 1.489 0 00-.302-.059v-.002c0-.068 0-.119-.01-.168-.03-.145-.15-.272-.625-.779l-.419-.448a.596.596 0 00-.76-.093C8.17 4.74 6.746 5.123 5.433 5.03a.595.595 0 00-.62.448zm.651.335v2.089c0 1.284 1.023 2.468 2.55 2.468A2.472 2.472 0 0010.48 7.9V5.47c-.056-.07-.19-.212-.415-.452l-.417-.446c-1.224.784-2.74 1.214-4.185 1.13v.11zm.876 8.476l-.984-1.972.95-.369 1.217 1.502-1.183.84zm1.354 1.17l-.97 5.725 1.284 1.412 1.283-1.412-.97-5.726h-.627z" clip-rule="evenodd"/>
</svg>
