<svg xmlns="http://www.w3.org/2000/svg" width="20" height="24" fill="none" viewBox="0 0 20 24">
	<path fill="#172962" fill-rule="evenodd" d="M13.97 22.64h-1.576v-1.97a.394.394 0 00-.394-.394H8.059a.394.394 0 00-.394.394v1.97H6.088v-3.152H5.3v3.547c0 .217.177.394.394.394h8.67a.394.394 0 00.394-.394v-3.547h-.788v3.152zm-2.364 0h-1.183v-1.576h1.183v1.576zm-1.97-1.576H8.452v1.576h1.182v-1.576z" clip-rule="evenodd"/>
	<path fill="#172962" fill-rule="evenodd" d="M4.118 15.547h13.794c.87 0 1.575.706 1.576 1.576v5.123a.394.394 0 01-.394.394h-2.365a.394.394 0 01-.394-.394v-2.758h.788v2.364H18.7v-2.364a.79.79 0 00-.788-.788H4.117a1.578 1.578 0 01-1.576-1.577V14.76a1.578 1.578 0 011.576-1.577H5.3v-.788h.788v2.365H5.3v-.789H4.118a.788.788 0 000 1.577zm0 2.364h13.793c.277 0 .55.073.788.212v-1a.79.79 0 00-.788-.788H4.118c-.277 0-.549-.073-.788-.212v1a.79.79 0 00.788.788z" clip-rule="evenodd"/>
	<path fill="#172962" fill-rule="evenodd" d="M15.94 13.182a.789.789 0 000-1.576H2.149A1.578 1.578 0 01.57 10.03V2.148c0-.105.042-.205.116-.279L1.869.687a.394.394 0 01.557 0L3.61 1.869a.394.394 0 01.115.279v5.517h-.788V2.311l-.788-.788-.789.788v5.354a.79.79 0 00.789.788H15.94c.87.001 1.575.706 1.576 1.577v2.364a1.578 1.578 0 01-1.576 1.576h-1.183v.789h-.788v-2.365h.788v.788h1.183zM1.36 9.03v1a.79.79 0 00.788.788H15.94c.277 0 .548.073.788.212v-1a.79.79 0 00-.788-.789H2.148a1.57 1.57 0 01-.789-.211z" clip-rule="evenodd"/>
	<path fill="#172962" fill-rule="evenodd" d="M5.3 4.512h-.394a.394.394 0 01-.394-.394V2.542c0-.218.177-.394.394-.394h10.247c.217 0 .394.176.394.394v1.576a.394.394 0 01-.394.394h-.395v3.153h-.788V4.512H6.09v3.153H5.3V4.512zm9.458-1.576H5.3v.788h9.458v-.788z" clip-rule="evenodd"/>
	<path fill="#172962" d="M7.271 5.3h.788v.789h-.788V5.3zm1.576 0h.788v.789h-.788V5.3zm1.576 0h.788v.789h-.788V5.3zM12 5.3h.788v.789H12V5.3zM7.271 6.877h.788v.788h-.788v-.788zm1.576 0h.788v.788h-.788v-.788zm1.576 0h.788v.788h-.788v-.788zm1.577 0h.788v.788H12v-.788zm-4.729 5.517h.788v.788h-.788v-.788zm1.576 0h.788v.788h-.788v-.788zm1.576 0h.788v.788h-.788v-.788zm1.577 0h.788v.788H12v-.788zM7.271 13.97h.788v.789h-.788v-.789zm1.576 0h.788v.789h-.788v-.789zm1.576 0h.788v.789h-.788v-.789zm1.577 0h.788v.789H12v-.789z"/>
</svg>
