<svg xmlns="http://www.w3.org/2000/svg" width="16" height="13" fill="none" viewBox="0 0 16 13">
	<path fill="#172962" d="M15.312 1.675a6.02 6.02 0 01-1.77.498A3.153 3.153 0 0014.897.424a6.07 6.07 0 01-1.958.766 3.04 3.04 0 00-2.25-.997c-1.701 0-3.082 1.415-3.082 3.16 0 .248.027.489.08.72C5.125 3.943 2.854 2.685 1.333.77a3.218 3.218 0 00-.418 1.59c0 1.097.545 2.064 1.372 2.632A3.027 3.027 0 01.89 4.597v.04c0 1.531 1.063 2.809 2.474 3.098a2.994 2.994 0 01-1.393.055c.393 1.256 1.53 2.17 2.88 2.195a6.087 6.087 0 01-4.564 1.31 8.583 8.583 0 004.725 1.419c5.67 0 8.77-4.816 8.77-8.993 0-.138-.002-.275-.007-.41a6.325 6.325 0 001.537-1.636z"/>
</svg>
