<svg xmlns="http://www.w3.org/2000/svg" width="53" height="52" fill="none" viewBox="0 0 53 52">
	<path fill="#172962" fill-rule="evenodd" d="M44.73 22.523a2.584 2.584 0 00-2.44-1.717 2.585 2.585 0 00-2.43 1.727h-5.337V19.08h3.452a.863.863 0 00.863-.862v-3.612a2.59 2.59 0 10-1.726 0v2.748h-2.59v-1.726a.863.863 0 00-.862-.863h-1.727V10.29a2.59 2.59 0 10-1.726 0v4.475h-3.452V.986a.863.863 0 00-.863-.863C15.245.123 6.904 7.832 6.904 17.672c0 4.674 1.856 10.863 4.843 16.15.535.946 1.232 1.94 1.97 2.993l.008.011c1.566 2.233 3.31 4.745 3.5 6.93a2.453 2.453 0 00-1.038 2.049 2.56 2.56 0 00.572 1.602 2.662 2.662 0 00-.793 1.911 2.592 2.592 0 002.59 2.59h14.672a2.606 2.606 0 002.59-2.623v-.028a2.58 2.58 0 00-.795-1.859 2.664 2.664 0 00.573-1.654 2.475 2.475 0 00-2.589-2.468h-6.252V26.848h1.726v2.589c0 .476.386.863.863.863h2.59v1.022a2.59 2.59 0 101.726 0v-1.885a.863.863 0 00-.863-.863h-2.59v-1.726h3.453a.863.863 0 00.863-.863v-1.726h5.337a2.585 2.585 0 104.87-1.736zm-6.755-11.21a.863.863 0 110 1.726.863.863 0 010-1.726zm-22.84 24.519l.003.003c1.62 2.31 3.422 4.898 3.775 7.442h6.116v-9.561c-.23-.017-.463-.038-.713-.069a.863.863 0 01-.74-.68l-.263-1.25c-.217-.05-.433-.109-.648-.174l-.86.96a.865.865 0 01-.981.218 12.959 12.959 0 01-2.716-1.587.864.864 0 01-.3-.959l.396-1.205a11.782 11.782 0 01-.476-.475l-1.206.396a.867.867 0 01-.958-.3 12.958 12.958 0 01-1.587-2.717.864.864 0 01.218-.98l.96-.86a11.262 11.262 0 01-.173-.642l-1.342-.268a.863.863 0 01-.694-.846v-2.943c0-.412.29-.766.694-.846l1.342-.268c.051-.215.109-.428.173-.642l-.96-.86a.863.863 0 01-.218-.98c.417-.967.95-1.88 1.587-2.717a.868.868 0 01.958-.3l1.206.396c.154-.163.313-.322.476-.475l-.396-1.207a.863.863 0 01.3-.959 12.989 12.989 0 012.715-1.585.862.862 0 01.982.218l.86.96c.215-.065.431-.123.648-.175l.263-1.25a.863.863 0 01.74-.68c.25-.03.484-.05.713-.068v-6.03c-9.264.4-16.399 7.198-16.399 15.805 0 4.328 1.814 10.334 4.62 15.3.495.877 1.17 1.84 1.886 2.86zm2.99-15.026a7.777 7.777 0 006.904 7.717v2.968l-.143-.68a.863.863 0 00-.692-.672 9.354 9.354 0 01-1.503-.405.862.862 0 00-.935.237l-.811.905a11.19 11.19 0 01-1.3-.763l.375-1.14a.864.864 0 00-.263-.93 9.449 9.449 0 01-1.104-1.103.868.868 0 00-.928-.262l-1.14.376c-.283-.416-.538-.85-.763-1.3l.906-.812a.865.865 0 00.237-.934 9.412 9.412 0 01-.406-1.504.863.863 0 00-.68-.693l-1.207-.241v-1.527l1.207-.241a.863.863 0 00.68-.693 9.434 9.434 0 01.405-1.505.864.864 0 00-.236-.934l-.906-.811c.226-.45.48-.884.763-1.3l1.14.375c.334.109.7.006.928-.261a9.667 9.667 0 011.105-1.107.862.862 0 00.262-.926l-.375-1.14c.416-.283.85-.538 1.3-.763l.81.905a.866.866 0 00.936.237 9.33 9.33 0 011.503-.405.862.862 0 00.692-.672l.143-.68v2.968a7.777 7.777 0 00-6.905 7.716zm1.786-.855a6.034 6.034 0 005.118 6.828V14.834a6.034 6.034 0 00-5.118 5.117zm14.18 29.367a.864.864 0 01-.863.863H18.556a.879.879 0 01-.863-.924c0-.476.386-.862.863-.863h14.672a.879.879 0 01.863.924zm-.224-3.6a.79.79 0 00-.86-.715h-14.23a.78.78 0 00-.863.742l-.001.012v.017a.879.879 0 00.864.894h14.23a.864.864 0 00.86-.95zm-1.07-12.829a.863.863 0 110 1.727.863.863 0 010-1.727zM31.932 7.86a.863.863 0 10-1.726 0 .863.863 0 001.726 0zm.863 17.262h-6.041V16.49h6.041v8.63zm8.631-1.727a.863.863 0 101.726 0 .863.863 0 00-1.726 0z" clip-rule="evenodd"/>
	<path fill="#172962" d="M34.215 39.575a14.616 14.616 0 00-.806 1.685l1.605.636c.206-.51.444-1.007.712-1.487l-1.51-.834zm1.942-3.04c-.339.487-.677.982-1 1.483l1.448.937c.314-.483.641-.962.97-1.434l-1.418-.986zm1.963-2.872c-.29.462-.615.94-.955 1.43l1.418.985c.356-.513.695-1.012.998-1.496l-1.46-.919zm1.62-3.008c-.248.517-.506 1.03-.776 1.535l1.522.814a39.41 39.41 0 00.811-1.606l-1.557-.743zm1.348-3.167c-.2.533-.414 1.067-.64 1.598l1.589.676c.235-.554.458-1.11.667-1.668l-1.616-.606zM44.88 17.5l-1.727.013v.159c0 .481-.021.993-.066 1.519l1.72.145a19.87 19.87 0 00.073-1.664V17.5zm-.44-3.674l-1.681.393c.126.54.222 1.086.287 1.636l1.715-.204a16.737 16.737 0 00-.322-1.825zm-1.242-3.488l-1.551.755c.242.499.457 1.01.643 1.533l1.626-.578a16.615 16.615 0 00-.718-1.71zm-1.974-3.125l-1.352 1.074c.346.435.668.888.965 1.357l1.459-.922a17.416 17.416 0 00-1.072-1.509zM38.638 4.58l-1.1 1.33c.43.354.84.73 1.23 1.128l1.23-1.21a18.138 18.138 0 00-1.36-1.249zm-3.054-2.058l-.821 1.519c.493.266.975.558 1.434.866l.963-1.433a19.454 19.454 0 00-1.576-.952zM32.201 1.09l-.522 1.645c.537.17 1.066.366 1.572.58l.676-1.587A19.404 19.404 0 0032.2 1.09zM28.62.298L28.4 2.01c.556.072 1.113.169 1.655.29L30.43.613a21.312 21.312 0 00-1.81-.315zM1.727 46.699h1.726v1.726H1.727zm0 3.452h1.726v1.726H1.727zm1.725-1.726h1.726v1.726H3.452zm-3.452 0h1.726v1.726H0zM49.195.093h1.726v1.726h-1.726zm0 3.452h1.726v1.726h-1.726zm1.726-1.726h1.726v1.726h-1.726zm-3.452 0h1.726v1.726h-1.726z"/>
</svg>
