<svg xmlns="http://www.w3.org/2000/svg" width="47" height="52" fill="none" viewBox="0 0 47 52">
	<path fill="#172962" d="M15.207 20.1h1.254a.762.762 0 100-1.524h-1v-3.158a.762.762 0 10-1.524 0v3.412c0 .7.57 1.27 1.27 1.27zm4.019 2.62a.762.762 0 00-1.072-1.083 3.67 3.67 0 01-5.148 0 .762.762 0 10-1.072 1.082 5.165 5.165 0 003.646 1.494c1.32 0 2.641-.498 3.646-1.494zm-7.016-9.806a.758.758 0 001.078-.005.762.762 0 00-.006-1.077 3.65 3.65 0 00-5.12 0 .762.762 0 001.072 1.082 2.122 2.122 0 012.977 0zm-1.326.918a.762.762 0 00-.762.762v2.068a.762.762 0 001.524 0v-2.068a.762.762 0 00-.762-.762zm9.391 3.592a.762.762 0 00.762-.762v-2.067a.761.761 0 10-1.523 0v2.067c0 .42.34.762.761.762z"/>
	<path fill="#172962" fill-rule="evenodd" d="M43.076 24.624h.554c1.535 0 2.784-1.24 2.784-2.764v-1.74a2.762 2.762 0 00-1.494-2.448V12.55c0-4.528-3.687-8.212-8.218-8.212h-5.93a8.174 8.174 0 00-3.066.595C27.318 2.15 24.905 0 21.993 0H4.994c-.88 0-1.596.713-1.596 1.588v11.605a2.9 2.9 0 00-1.331 2.433v1.865c0 1.601 1.312 2.904 2.926 2.904h.637c.622 3.291 2.872 6.02 5.885 7.335v.158H7.264C3.258 27.888 0 31.135 0 35.126v15.36C0 51.32.68 52 1.518 52h42.658c.682 0 1.237-.555 1.237-1.236v-6.686a.762.762 0 10-1.524 0v6.399h-1.131v-4.481a.761.761 0 10-1.524 0v4.48H26.406v-4.48a.761.761 0 10-1.523 0v4.48h-1.298V37.582a4.747 4.747 0 014.743-4.74h1.566c.094 2.021 1.782 3.637 3.843 3.637s3.75-1.616 3.844-3.637h.304a1.466 1.466 0 00.093 1.967l.559.558c.165.165.362.286.578.357.07.212.188.41.353.575l.559.558c.165.165.362.286.578.356.07.213.188.411.353.575l.558.559a1.46 1.46 0 002.071-.001l.302-.301v2.378a.761.761 0 101.524 0V37.58a6.28 6.28 0 00-.078-.983l.549-.549c.276-.276.428-.644.428-1.035 0-.391-.152-.759-.428-1.035l-3.538-3.538a1.455 1.455 0 00-1.035-.43c-.392 0-.76.153-1.036.43l-.883.883a6.235 6.235 0 00-.245-.007h-1.261c2.652-1.278 4.618-3.743 5.19-6.693zm1.815-2.764c0 .684-.566 1.24-1.261 1.24h-.386c.002-.086.004-.172.004-.258V18.88h.382c.695 0 1.26.556 1.26 1.24v1.74zM3.59 17.49c0 .762.63 1.382 1.403 1.382h.468c-.003-.11-.006-.22-.006-.33v-4.297h-.462c-.774 0-1.403.62-1.403 1.381v1.865zm3.389 1.052V8.524h3.33a.762.762 0 100-1.524H6.736a1.28 1.28 0 00-1.28 1.276v4.445h-.517l-.018.002V1.588c0-.036.033-.065.073-.065h16.999c2.336 0 4.237 1.875 4.245 4.182a8.275 8.275 0 00-1.545 1.325 1.257 1.257 0 00-.27-.029H14.067a.762.762 0 000 1.524h9.548a8.149 8.149 0 00-.991 2.985 3.652 3.652 0 00-4.746.322.762.762 0 101.072 1.082 2.122 2.122 0 012.977 0 .76.76 0 00.629.215v4.543a2.763 2.763 0 00-1.495 2.448v1.74c0 .886.422 1.674 1.076 2.18a8.619 8.619 0 01-6.556 3.011c-4.743 0-8.601-3.817-8.601-8.51zm8.6 10.033a10.18 10.18 0 01-2.54-.32v1.224c0 1.383 1.14 2.508 2.54 2.508 1.402 0 2.542-1.125 2.542-2.508v-1.225c-.812.208-1.663.32-2.541.32zm4.066-.846a10.17 10.17 0 003.988-3.114c.07.005.14.009.212.009h.553a9.327 9.327 0 001.5 3.545 7.274 7.274 0 00-2.002-.28h-4.251v-.16zm4.2-4.629h.385a11.123 11.123 0 01-.003-.258V18.88h-.383c-.695 0-1.26.556-1.26 1.24v1.74c0 .684.565 1.24 1.26 1.24zm-1.783 14.48v12.897H5.282v-6.704a.762.762 0 10-1.524 0v6.704H1.523V35.126c0-3.15 2.576-5.714 5.74-5.714h4.252v.067c0 2.223 1.824 4.032 4.065 4.032 2.241 0 4.065-1.809 4.065-4.033v-.066h4.251c1.698 0 3.225.739 4.277 1.91-3.384.082-6.111 2.857-6.111 6.259zm9.35-4.918c0 1.264 1.043 2.293 2.325 2.293 1.282 0 2.325-1.029 2.325-2.293v-.685a9.573 9.573 0 01-4.65 0v.685zm13.352 2.352l-2.213 2.213-.433-.434.827-.828a.762.762 0 10-1.077-1.076l-.827.826-.432-.432.827-.827a.762.762 0 00-1.078-1.077l-.827.827-.433-.434 2.212-2.213 3.454 3.455zM25.75 22.842c0 4.354 3.583 7.896 7.987 7.896s7.987-3.542 7.987-7.896v-9.304H37.37c-.24.414-.518.807-.826 1.172a.761.761 0 11-1.164-.983 6.73 6.73 0 00.788-1.16c.183-.341.537-.553.922-.553H42c.688 0 1.248.558 1.248 1.242v4.1h.148V12.55c0-3.688-3.003-6.689-6.694-6.689h-5.93c-3.69 0-6.694 3.001-6.694 6.69v4.805h.149v-.211c0-.577.469-1.046 1.046-1.046h4.995c.83 0 1.643-.151 2.414-.45a.762.762 0 11.55 1.422 8.198 8.198 0 01-2.964.551H25.75v5.22z" clip-rule="evenodd"/>
	<path fill="#172962" d="M33.422 23.977h1.138a.762.762 0 100-1.523h-.884v-1.67a.762.762 0 10-1.524 0v1.924c0 .7.57 1.27 1.27 1.27zm2.968 1.72a3.782 3.782 0 01-5.305 0 .761.761 0 10-1.072 1.083 5.277 5.277 0 003.724 1.524 5.279 5.279 0 003.724-1.524.762.762 0 00-1.072-1.084zm-6.279-4.193v-1.931a.761.761 0 10-1.523 0v1.93a.762.762 0 001.523 0zm8.014-2.693a.762.762 0 00-.762.762v1.93a.762.762 0 101.524 0v-1.93a.762.762 0 00-.762-.762zm1.496-2.621H36.87a.762.762 0 100 1.523h2.752a.761.761 0 100-1.524z"/>
	<path fill="#172962" fill-rule="evenodd" d="M35.953 42.148a3 3 0 012.996-2.996 3 3 0 012.996 2.996 3 3 0 01-2.996 2.996 3 3 0 01-2.996-2.996zm1.524 0a1.473 1.473 0 002.945 0 1.473 1.473 0 00-2.945 0z" clip-rule="evenodd"/>
</svg>
