<svg xmlns="http://www.w3.org/2000/svg" width="47" height="52" fill="none" viewBox="0 0 47 52">
	<path fill="#172962" fill-rule="evenodd" d="M11.19 28.281l8.036-1.89a.861.861 0 00.666-.842v-1.225h-1.73a2.597 2.597 0 01-2.594-2.594v-4.325h-1.73a.865.865 0 01-.811-1.162c.988-2.695 2.595-7.145 2.714-7.65A10.384 10.384 0 0127.134.173c4.745.529 8.58 4.355 9.121 9.099a10.335 10.335 0 01-2.08 7.526C32.752 18.643 32 20.724 32 22.815v2.734a.862.862 0 00.667.841l8.035 1.891a7.754 7.754 0 016.001 7.577V52h-1.73V35.858a6.03 6.03 0 00-4.667-5.893l-8.035-1.89a2.585 2.585 0 01-2-2.526v-2.734c0-2.477.876-4.923 2.534-7.073a8.649 8.649 0 10-15.365-6.83c-.052.284-.539 1.69-1.114 3.304h7.89a4.33 4.33 0 014.325 4.325v18.594l1.73 1.297v-1.08a3.245 3.245 0 015.686-2.136l3.631 4.15a7.781 7.781 0 011.926 5.126v8.643a.865.865 0 01-.865.865h-5.284a5.1 5.1 0 01-5.094-5.094v-3.957l-4.325-2.883-4.324 2.883v3.957A5.1 5.1 0 0116.528 52h-5.284a.865.865 0 01-.865-.865v-8.643c0-1.886.684-3.707 1.925-5.126l3.631-4.15a3.245 3.245 0 015.687 2.137v1.08l1.73-1.298v-14.27h-6.054v.865c0 .477.387.864.865.865h2.594c.478 0 .865.387.865.864v2.09a2.585 2.585 0 01-2 2.526l-8.035 1.89a6.03 6.03 0 00-4.668 5.893V52H5.19V35.858a7.754 7.754 0 016.002-7.577zm5.338 21.99a3.368 3.368 0 003.364-3.365V41.42l-2.721 1.632-.536 1.873 2.14 2.14-1.224 1.223-1.46-1.46-.556 1.95-1.664-.475 1.415-4.952h-1.448v-1.73h2.355l1.195-.717-2.207-1.103.773-1.547 3.192 1.596.746-.448v-4.05a1.515 1.515 0 00-2.655-.997l-3.63 4.15a6.053 6.053 0 00-1.499 3.987v7.778h4.42zM32 35.352a1.515 1.515 0 012.655-.998l3.631 4.15a6.053 6.053 0 011.498 3.987v7.778h-4.42A3.368 3.368 0 0132 46.906V41.42l2.722 1.632.535 1.873-2.139 2.139 1.224 1.223 1.46-1.46.556 1.95 1.663-.475-1.415-4.95h1.448v-1.73H35.7l-1.195-.718 2.207-1.103-.773-1.547-3.192 1.596-.746-.448v-4.05zM15.704 13.946l-.629 1.73h1.358c.477 0 .865.387.865.865v2.594h6.054a1.732 1.732 0 011.73 1.73v14.703a.865.865 0 01-.347.692l-3.113 2.335v2.276l3.845-2.564a.865.865 0 01.959 0l3.845 2.563v-2.275l-3.114-2.335a.865.865 0 01-.346-.692V16.54a2.598 2.598 0 00-2.595-2.595h-8.512z" clip-rule="evenodd"/>
	<path fill="#172962" d="M.534 30.313c.323.133.695.06.942-.188l2.595-2.595-1.223-1.223-.769.769a8.664 8.664 0 018.3-6.211h.864v-1.73h-.865C4.65 19.142.006 23.785 0 29.513c0 .35.21.666.534.8zM1.73 7.027H0c.006 5.73 4.65 10.372 10.378 10.378h.865a.865.865 0 00.612-1.476L9.26 13.334l-1.223 1.223 1.017 1.017A8.663 8.663 0 011.73 7.027z"/>
</svg>
