<svg xmlns="http://www.w3.org/2000/svg" width="61" height="52" fill="none" viewBox="0 0 61 52">
	<path fill="#172962" fill-rule="evenodd" d="M44.151 29.434H16.68a2.943 2.943 0 01-2.944-2.943v-4.906a2.943 2.943 0 012.944-2.944h22.566v-.98h-6.868a2.943 2.943 0 01-2.944-2.944v-.981a2.943 2.943 0 012.944-2.944v-.98h-4.906a2.943 2.943 0 01-2.943-2.944v-.981a2.943 2.943 0 012.943-2.944h10.793a2.943 2.943 0 012.943 2.944v.981a2.943 2.943 0 01-2.943 2.943h-.982v.982h10.793a2.943 2.943 0 012.943 2.943v.981a2.943 2.943 0 01-2.943 2.943h-3.925v.982a2.943 2.943 0 012.944 2.943v4.906a2.943 2.943 0 01-2.944 2.943zm-27.471-8.83a.981.981 0 00-.981.98v4.907c0 .541.439.98.98.98h27.472a.981.981 0 00.982-.98v-4.906a.981.981 0 00-.982-.981h-.98a.981.981 0 01-.982-.981v-2.944c0-.542.44-.98.981-.98h4.906c.542 0 .981-.44.981-.982v-.981a.981.981 0 00-.981-.981H36.302a.981.981 0 01-.98-.981V8.83c0-.542.438-.98.98-.98h1.963c.541 0 .98-.44.98-.982v-.981a.981.981 0 00-.98-.981H27.472a.981.981 0 00-.981.98v.982c0 .542.44.981.981.981h5.887c.542 0 .981.44.981.981v2.944a.98.98 0 01-.981.98h-.981a.981.981 0 00-.981.982v.981a.98.98 0 00.98.981h7.85c.542 0 .981.44.981.981v2.944c0 .541-.44.98-.981.98H16.68z" clip-rule="evenodd"/>
	<path fill="#172962" fill-rule="evenodd" d="M48.076 6.868h-2.944a1.962 1.962 0 01-1.962-1.962V1.962C43.17.88 44.048 0 45.132 0h2.944c1.083 0 1.962.879 1.962 1.962v2.944a1.962 1.962 0 01-1.962 1.962zm0-4.906h-2.944v2.944h2.944V1.962zM9.81 29.434H6.869a1.962 1.962 0 01-1.963-1.962v-2.944c0-1.083.879-1.962 1.963-1.962H9.81c1.084 0 1.962.879 1.962 1.962v2.944a1.962 1.962 0 01-1.962 1.962zm0-4.906H6.869v2.944H9.81v-2.944zM59.85 43.17h-6.87a.981.981 0 00-.981-.981h-2.943v-.981a.981.981 0 00-.982-.982H42.19a.981.981 0 00-.981.982v.98H13.736v-.98h.981c.542 0 .981-.44.981-.982v-2.943a.981.981 0 00-.981-.981h-.981v-.981h.981c.542 0 .981-.44.981-.981v-2.944a.981.981 0 00-.981-.98H.981a.981.981 0 00-.981.98v2.944c0 .541.44.98.981.98h.981v.982h-.98a.981.981 0 00-.982.981v2.943c0 .542.44.982.981.982h.981v7.849A2.943 2.943 0 004.906 52h5.887a2.943 2.943 0 002.762-1.962h27.653v.98a.98.98 0 00.98.982h5.887c.542 0 .982-.44.982-.981v-.981H52c.542 0 .981-.44.981-.981h6.868c.542 0 .981-.44.981-.982v-3.924a.981.981 0 00-.98-.981zM1.961 32.377h11.774v.981H1.962v-.98zm9.812 2.944h-7.85v.98h7.85v-.98zm-9.812 2.943h11.774v.981H1.962v-.98zm2.944 11.774h5.887c.541 0 .98-.44.98-.981v-7.85H3.926v4.906h1.962a.981.981 0 010 1.962H3.925v.982c0 .541.439.98.98.98zm8.83-1.962V44.15h27.472v3.924H13.736zm29.434 1.962h3.924v-7.85H43.17v7.85zm5.887-1.962V44.15h1.962v3.924h-1.962zm3.924-.982h5.887v-1.962H52.98v1.962z" clip-rule="evenodd"/>
	<path fill="#172962" d="M22.566 45.132h-6.868a.981.981 0 100 1.962h6.868a.981.981 0 100-1.962zm3.924 0h-.98a.981.981 0 100 1.962h.98a.981.981 0 100-1.962z"/>
</svg>
